<svg xmlns="http://www.w3.org/2000/svg" xmlns:xlink="http://www.w3.org/1999/xlink" width="500" zoomAndPan="magnify" viewBox="0 0 375 374.999991" height="500" preserveAspectRatio="xMidYMid meet" version="1.0"><defs><clipPath id="4e9e3103a8"><path d="M 134 142 L 241 142 L 241 258.28125 L 134 258.28125 Z M 134 142 " clip-rule="nonzero"/></clipPath><clipPath id="d39737b691"><path d="M 112.5 116.53125 L 262.5 116.53125 L 262.5 192 L 112.5 192 Z M 112.5 116.53125 " clip-rule="nonzero"/></clipPath></defs><g clip-path="url(#4e9e3103a8)"><path fill="#000000" d="M 240.160156 188.585938 Z M 240.160156 188.585938 L 187.515625 142.023438 L 134.839844 188.605469 L 134.839844 255.164062 C 134.839844 256.882812 136.230469 258.261719 137.953125 258.261719 L 170.871094 258.261719 L 170.871094 229.078125 C 170.871094 227.359375 172.253906 225.96875 173.972656 225.96875 L 201.023438 225.96875 C 202.746094 225.96875 204.125 227.359375 204.125 229.078125 L 204.125 258.261719 L 237.054688 258.261719 C 238.777344 258.261719 240.15625 256.882812 240.15625 255.164062 L 240.15625 188.582031 Z M 134.839844 188.605469 Z M 134.839844 188.605469 " fill-opacity="1" fill-rule="nonzero"/></g><g clip-path="url(#d39737b691)"><path fill="#000000" d="M 187.210938 116.542969 L 112.5 182.605469 L 120.371094 191.472656 L 187.515625 132.09375 L 254.644531 191.472656 L 262.5 182.605469 L 187.808594 116.542969 L 187.515625 116.878906 Z M 187.210938 116.542969 " fill-opacity="1" fill-rule="nonzero"/></g><path fill="#000000" d="M 134.839844 126.050781 L 153.777344 126.050781 L 153.613281 137.253906 L 134.839844 154.191406 Z M 134.839844 126.050781 " fill-opacity="1" fill-rule="nonzero"/></svg>