<svg version="1.2" xmlns="http://www.w3.org/2000/svg" viewBox="0 0 50 47" width="50" height="47">
	<title>25-svg</title>
	<defs>
		<clipPath clipPathUnits="userSpaceOnUse" id="cp1">
			<path d="m7.28 8.55h35.44v38.21h-35.44z"/>
		</clipPath>
		<clipPath clipPathUnits="userSpaceOnUse" id="cp2">
			<path d="m0.17 0.17h49.66v24.81h-49.66z"/>
		</clipPath>
	</defs>
	<style>
		.s0 { fill: #000000 } 
	</style>
	<g id="Clip-Path" clip-path="url(#cp1)">
		<g id="Layer">
			<path id="Layer" class="s0" d="m42.4 23.9l-17.4-15.3-17.4 15.3v21.8c0 0.6 0.4 1.1 1 1.1h10.9v-9.6c0-0.6 0.5-1.1 1-1.1h9c0.5 0 1 0.5 1 1.1v9.6h10.9c0.6 0 1-0.5 1-1.1 0 0 0-21.8 0-21.8z"/>
		</g>
	</g>
	<g id="Clip-Path" clip-path="url(#cp2)">
		<g id="Layer">
			<path id="Layer" class="s0" d="m24.9 0.2l-24.7 21.7 2.6 2.9 22.2-19.5 22.2 19.5 2.6-2.9-24.7-21.7-0.1 0.1z"/>
		</g>
	</g>
	<path id="Layer" class="s0" d="m7.6 3.3h6.2v3.7l-6.2 5.6z"/>
</svg>