<svg version="1.2" xmlns="http://www.w3.org/2000/svg" viewBox="0 0 41 50" width="41" height="50">
	<title>26-svg</title>
	<defs>
		<clipPath clipPathUnits="userSpaceOnUse" id="cp1">
			<path d="m13.67 0.17h14v13.74h-14z"/>
		</clipPath>
		<clipPath clipPathUnits="userSpaceOnUse" id="cp2">
			<path d="m0.03 13.91h41v35.92h-41z"/>
		</clipPath>
	</defs>
	<style>
		.s0 { fill: #000000 } 
	</style>
	<g id="Clip-Path" clip-path="url(#cp1)">
		<g id="Layer">
			<path id="Layer" class="s0" d="m27.4 6.9q0 0.4-0.1 0.7 0 0.3-0.1 0.7 0 0.3-0.1 0.6-0.1 0.3-0.3 0.6-0.1 0.3-0.2 0.6-0.2 0.3-0.4 0.6-0.2 0.3-0.4 0.5-0.2 0.3-0.4 0.5-0.3 0.3-0.5 0.5-0.3 0.2-0.6 0.4-0.3 0.2-0.5 0.3-0.3 0.2-0.7 0.3-0.3 0.1-0.6 0.2-0.3 0.1-0.6 0.2-0.4 0-0.7 0.1-0.3 0-0.7 0-0.3 0-0.6 0-0.4-0.1-0.7-0.1-0.3-0.1-0.7-0.2-0.3-0.1-0.6-0.2-0.3-0.1-0.6-0.3-0.3-0.1-0.6-0.3-0.2-0.2-0.5-0.4-0.3-0.2-0.5-0.5-0.2-0.2-0.4-0.5-0.3-0.2-0.4-0.5-0.2-0.3-0.4-0.6-0.1-0.3-0.3-0.6-0.1-0.3-0.2-0.6-0.1-0.3-0.2-0.6 0-0.4-0.1-0.7 0-0.3 0-0.7 0-0.3 0-0.6 0.1-0.4 0.1-0.7 0.1-0.3 0.2-0.6 0.1-0.3 0.2-0.7 0.2-0.3 0.3-0.6 0.2-0.2 0.4-0.5 0.1-0.3 0.4-0.6 0.2-0.2 0.4-0.5 0.2-0.2 0.5-0.4 0.3-0.2 0.5-0.4 0.3-0.2 0.6-0.3 0.3-0.2 0.6-0.3 0.3-0.1 0.6-0.2 0.4-0.1 0.7-0.2 0.3-0.1 0.7-0.1 0.3 0 0.6 0 0.4 0 0.7 0 0.3 0 0.7 0.1 0.3 0.1 0.6 0.2 0.3 0.1 0.6 0.2 0.4 0.1 0.7 0.3 0.2 0.1 0.5 0.3 0.3 0.2 0.6 0.4 0.2 0.2 0.5 0.4 0.2 0.3 0.4 0.5 0.2 0.3 0.4 0.6 0.2 0.3 0.4 0.5 0.1 0.3 0.2 0.6 0.2 0.4 0.3 0.7 0.1 0.3 0.1 0.6 0.1 0.3 0.1 0.7 0.1 0.3 0.1 0.6z"/>
		</g>
	</g>
	<path id="Layer" class="s0" d="m34.2 20.5q0 0.4-0.1 0.9-0.1 0.4-0.3 0.8-0.1 0.4-0.4 0.8-0.2 0.4-0.5 0.7-0.4 0.3-0.7 0.5-0.4 0.3-0.8 0.5-0.4 0.1-0.9 0.2-0.4 0.1-0.9 0.1-0.4 0-0.9-0.1-0.4-0.1-0.8-0.2-0.4-0.2-0.8-0.5-0.4-0.2-0.7-0.5-0.3-0.3-0.5-0.7-0.3-0.4-0.5-0.8-0.1-0.4-0.2-0.8-0.1-0.5-0.1-0.9 0-0.5 0.1-0.9 0.1-0.4 0.2-0.8 0.2-0.5 0.5-0.8 0.2-0.4 0.5-0.7 0.3-0.3 0.7-0.6 0.4-0.2 0.8-0.4 0.4-0.2 0.8-0.2 0.5-0.1 0.9-0.1 0.5 0 0.9 0.1 0.5 0 0.9 0.2 0.4 0.2 0.8 0.4 0.3 0.3 0.7 0.6 0.3 0.3 0.5 0.7 0.3 0.3 0.4 0.8 0.2 0.4 0.3 0.8 0.1 0.4 0.1 0.9z"/>
	<path id="Layer" class="s0" d="m23.7 33.5c0 0 8.2 1.3 10 1.9 1.7 0.5 2.5 0.6 3.3 0.2 1.7-1 2-2.6 1.2-4.5-0.7-1.9-3.4-9.9-4.2-11.9l-5.8-0.9c0.2 0 0.4 4.2 0.3 4.5-0.1 0.5-6 10.2-4.8 10.7z"/>
	<path id="Layer" class="s0" d="m17.4 33.5c0 0-8.3 1.3-10.1 1.9-1.6 0.5-2.4 0.6-3.2 0.2-1.7-1-2-2.6-1.3-4.5 0.8-1.9 3.5-9.9 4.2-11.9l5.9-0.9c-0.2 0-0.4 4.2-0.4 4.5 0.1 0.5 6.1 10.2 4.9 10.7z"/>
	<path id="Layer" class="s0" d="m16 20.5q0 0.4-0.1 0.9-0.1 0.4-0.3 0.8-0.1 0.4-0.4 0.8-0.2 0.4-0.6 0.7-0.3 0.3-0.6 0.5-0.4 0.3-0.8 0.5-0.4 0.1-0.9 0.2-0.4 0.1-0.9 0.1-0.4 0-0.9-0.1-0.4-0.1-0.8-0.2-0.4-0.2-0.8-0.5-0.4-0.2-0.7-0.5-0.3-0.3-0.6-0.7-0.2-0.4-0.4-0.8-0.2-0.4-0.2-0.8-0.1-0.5-0.1-0.9 0-0.5 0.1-0.9 0-0.4 0.2-0.8 0.2-0.5 0.4-0.8 0.3-0.4 0.6-0.7 0.3-0.3 0.7-0.6 0.4-0.2 0.8-0.4 0.4-0.2 0.8-0.2 0.5-0.1 0.9-0.1 0.5 0 0.9 0.1 0.5 0 0.9 0.2 0.4 0.2 0.8 0.4 0.3 0.3 0.6 0.6 0.4 0.3 0.6 0.7 0.3 0.3 0.4 0.8 0.2 0.4 0.3 0.8 0.1 0.4 0.1 0.9z"/>
	<g id="Clip-Path" clip-path="url(#cp2)">
		<g id="Layer">
			<path id="Layer" fill-rule="evenodd" class="s0" d="m41 46.1c0 3.7-6.7 3.7-8.6 3.7-2 0-13.6 0-15 0-1.4 0-3.7-0.7-3.7-3.5 0-2.6 3.2-3.4 7.2-4.1 5.1-0.8 8.7-1.4 8.7-1.4l-5.6-1.6c0 0-2.3 0.1-3.8 0.3-4.2 0.6-9.6 2-9.6 6.1 0 3.1 2.9 4.2 2.9 4.2 0 0-5.6 0-7.7 0-2.7 0-5.8-1.2-5.8-4.1 0-2.5 1.8-3.8 4.8-5.6 2.4-1.5 6.6-3.4 6.6-5.1v-10l-0.9-9c0 0 5.2-2 10-2 4.9 0 10.1 2.1 10.1 2.1l-1 8.9v9.9c0 1.6 3.2 2.4 7.5 5.5 2.2 1.5 3.9 2.2 3.9 5.7zm-15.9-18.8c0 0-1.3-9.1-4.6-9.1-3.3 0-4.5 9.1-4.5 9.1 1.8-3.4 3.1-6.2 4.5-6.2 1.4 0 3 3.2 4.6 6.2z"/>
		</g>
	</g>
</svg>