<svg xmlns="http://www.w3.org/2000/svg" xmlns:xlink="http://www.w3.org/1999/xlink" width="500" zoomAndPan="magnify" viewBox="0 0 375 374.999991" height="500" preserveAspectRatio="xMidYMid meet" version="1.0"><defs><clipPath id="76afa7cdba"><path d="M 167 112.5 L 209 112.5 L 209 154 L 167 154 Z M 167 112.5 " clip-rule="nonzero"/></clipPath><clipPath id="ff0dbf797e"><path d="M 126.09375 154 L 249.09375 154 L 249.09375 262.5 L 126.09375 262.5 Z M 126.09375 154 " clip-rule="nonzero"/></clipPath></defs><g clip-path="url(#76afa7cdba)"><path fill="#000000" d="M 208.078125 132.953125 C 208.078125 133.625 208.046875 134.292969 207.980469 134.960938 C 207.914062 135.625 207.816406 136.289062 207.6875 136.945312 C 207.554688 137.601562 207.390625 138.25 207.199219 138.890625 C 207.003906 139.535156 206.777344 140.164062 206.519531 140.78125 C 206.261719 141.402344 205.976562 142.007812 205.660156 142.597656 C 205.34375 143.1875 205 143.761719 204.628906 144.320312 C 204.253906 144.875 203.855469 145.414062 203.429688 145.929688 C 203.003906 146.449219 202.554688 146.945312 202.078125 147.417969 C 201.605469 147.890625 201.109375 148.339844 200.589844 148.765625 C 200.070312 149.191406 199.53125 149.589844 198.976562 149.960938 C 198.417969 150.335938 197.84375 150.679688 197.25 150.992188 C 196.660156 151.308594 196.054688 151.597656 195.433594 151.851562 C 194.8125 152.109375 194.183594 152.332031 193.539062 152.527344 C 192.898438 152.722656 192.25 152.886719 191.589844 153.015625 C 190.933594 153.148438 190.269531 153.246094 189.601562 153.3125 C 188.933594 153.375 188.265625 153.410156 187.59375 153.410156 C 186.921875 153.410156 186.253906 153.375 185.585938 153.3125 C 184.917969 153.246094 184.253906 153.148438 183.597656 153.015625 C 182.9375 152.886719 182.289062 152.722656 181.648438 152.527344 C 181.003906 152.332031 180.375 152.109375 179.753906 151.851562 C 179.132812 151.597656 178.527344 151.308594 177.9375 150.992188 C 177.34375 150.679688 176.769531 150.335938 176.210938 149.960938 C 175.65625 149.589844 175.117188 149.191406 174.597656 148.765625 C 174.078125 148.339844 173.582031 147.890625 173.109375 147.417969 C 172.632812 146.945312 172.183594 146.449219 171.757812 145.929688 C 171.332031 145.414062 170.933594 144.875 170.558594 144.320312 C 170.1875 143.761719 169.84375 143.1875 169.527344 142.597656 C 169.210938 142.007812 168.925781 141.402344 168.667969 140.78125 C 168.410156 140.164062 168.183594 139.535156 167.988281 138.890625 C 167.796875 138.25 167.632812 137.601562 167.5 136.945312 C 167.371094 136.289062 167.273438 135.625 167.207031 134.960938 C 167.140625 134.292969 167.109375 133.625 167.109375 132.953125 C 167.109375 132.285156 167.140625 131.617188 167.207031 130.949219 C 167.273438 130.28125 167.371094 129.621094 167.5 128.964844 C 167.632812 128.308594 167.796875 127.65625 167.988281 127.015625 C 168.183594 126.375 168.410156 125.746094 168.667969 125.125 C 168.925781 124.507812 169.210938 123.902344 169.527344 123.3125 C 169.84375 122.722656 170.1875 122.148438 170.558594 121.589844 C 170.933594 121.035156 171.332031 120.496094 171.757812 119.976562 C 172.183594 119.460938 172.632812 118.964844 173.109375 118.492188 C 173.582031 118.015625 174.078125 117.566406 174.597656 117.144531 C 175.117188 116.71875 175.65625 116.320312 176.210938 115.945312 C 176.769531 115.574219 177.34375 115.230469 177.9375 114.914062 C 178.527344 114.597656 179.132812 114.3125 179.753906 114.058594 C 180.375 113.800781 181.003906 113.574219 181.648438 113.378906 C 182.289062 113.1875 182.9375 113.023438 183.597656 112.894531 C 184.253906 112.761719 184.917969 112.664062 185.585938 112.597656 C 186.253906 112.53125 186.921875 112.5 187.59375 112.5 C 188.265625 112.5 188.933594 112.53125 189.601562 112.597656 C 190.269531 112.664062 190.933594 112.761719 191.589844 112.894531 C 192.25 113.023438 192.898438 113.1875 193.539062 113.378906 C 194.183594 113.574219 194.8125 113.800781 195.433594 114.058594 C 196.054688 114.3125 196.660156 114.597656 197.25 114.914062 C 197.84375 115.230469 198.417969 115.574219 198.976562 115.945312 C 199.53125 116.320312 200.070312 116.71875 200.589844 117.144531 C 201.109375 117.566406 201.605469 118.015625 202.078125 118.492188 C 202.554688 118.964844 203.003906 119.460938 203.429688 119.976562 C 203.855469 120.496094 204.253906 121.035156 204.628906 121.589844 C 205 122.148438 205.34375 122.722656 205.660156 123.3125 C 205.976562 123.902344 206.261719 124.507812 206.519531 125.125 C 206.777344 125.746094 207.003906 126.375 207.199219 127.015625 C 207.390625 127.65625 207.554688 128.308594 207.6875 128.964844 C 207.816406 129.621094 207.914062 130.28125 207.980469 130.949219 C 208.046875 131.617188 208.078125 132.285156 208.078125 132.953125 Z M 208.078125 132.953125 " fill-opacity="1" fill-rule="nonzero"/></g><path fill="#000000" d="M 228.566406 173.863281 C 228.566406 174.757812 228.476562 175.644531 228.304688 176.523438 C 228.128906 177.402344 227.867188 178.253906 227.527344 179.082031 C 227.183594 179.910156 226.761719 180.695312 226.261719 181.441406 C 225.765625 182.183594 225.199219 182.871094 224.566406 183.507812 C 223.929688 184.140625 223.242188 184.703125 222.496094 185.203125 C 221.75 185.699219 220.964844 186.121094 220.132812 186.460938 C 219.304688 186.804688 218.453125 187.0625 217.574219 187.238281 C 216.691406 187.414062 215.804688 187.5 214.90625 187.5 C 214.011719 187.5 213.125 187.414062 212.242188 187.238281 C 211.363281 187.0625 210.511719 186.804688 209.683594 186.460938 C 208.851562 186.121094 208.066406 185.699219 207.320312 185.203125 C 206.574219 184.703125 205.886719 184.140625 205.25 183.507812 C 204.617188 182.871094 204.050781 182.183594 203.550781 181.441406 C 203.054688 180.695312 202.632812 179.910156 202.289062 179.082031 C 201.949219 178.253906 201.6875 177.402344 201.511719 176.523438 C 201.339844 175.644531 201.25 174.757812 201.25 173.863281 C 201.25 172.96875 201.339844 172.082031 201.511719 171.203125 C 201.6875 170.324219 201.949219 169.472656 202.289062 168.644531 C 202.632812 167.816406 203.054688 167.03125 203.550781 166.289062 C 204.050781 165.542969 204.617188 164.855469 205.25 164.222656 C 205.886719 163.589844 206.574219 163.023438 207.320312 162.527344 C 208.066406 162.027344 208.851562 161.609375 209.683594 161.265625 C 210.511719 160.921875 211.363281 160.664062 212.242188 160.488281 C 213.125 160.316406 214.011719 160.226562 214.90625 160.226562 C 215.804688 160.226562 216.691406 160.316406 217.574219 160.488281 C 218.453125 160.664062 219.304688 160.921875 220.132812 161.265625 C 220.964844 161.609375 221.75 162.027344 222.496094 162.527344 C 223.242188 163.023438 223.929688 163.589844 224.566406 164.222656 C 225.199219 164.855469 225.765625 165.542969 226.261719 166.289062 C 226.761719 167.03125 227.183594 167.816406 227.527344 168.644531 C 227.867188 169.472656 228.128906 170.324219 228.304688 171.203125 C 228.476562 172.082031 228.566406 172.96875 228.566406 173.863281 Z M 228.566406 173.863281 " fill-opacity="1" fill-rule="nonzero"/><path fill="#000000" d="M 197.058594 213.128906 C 197.058594 213.128906 221.777344 216.988281 227.144531 218.773438 C 232.226562 220.464844 234.535156 220.828125 236.855469 219.539062 C 242.125 216.613281 242.859375 211.65625 240.6875 206.019531 C 238.386719 200.058594 230.332031 175.882812 228.039062 169.921875 C 228.039062 169.921875 210.539062 167.148438 210.539062 167.148438 C 211.199219 167.25 211.792969 179.851562 211.609375 180.832031 C 211.296875 182.460938 193.492188 211.546875 197.058594 213.128906 Z M 197.058594 213.128906 " fill-opacity="1" fill-rule="nonzero"/><path fill="#000000" d="M 178.128906 213.128906 C 178.128906 213.128906 153.410156 216.988281 148.042969 218.773438 C 142.960938 220.464844 140.652344 220.828125 138.332031 219.539062 C 133.0625 216.613281 132.328125 211.65625 134.5 206.019531 C 136.800781 200.058594 144.855469 175.882812 147.148438 169.921875 C 147.148438 169.921875 164.648438 167.148438 164.648438 167.148438 C 163.988281 167.25 163.394531 179.851562 163.578125 180.832031 C 163.890625 182.460938 181.695312 211.546875 178.128906 213.128906 Z M 178.128906 213.128906 " fill-opacity="1" fill-rule="nonzero"/><path fill="#000000" d="M 173.9375 173.863281 C 173.9375 174.757812 173.847656 175.644531 173.675781 176.523438 C 173.5 177.402344 173.238281 178.253906 172.898438 179.082031 C 172.554688 179.910156 172.132812 180.695312 171.636719 181.441406 C 171.136719 182.183594 170.570312 182.871094 169.9375 183.507812 C 169.300781 184.140625 168.613281 184.703125 167.867188 185.203125 C 167.121094 185.699219 166.335938 186.121094 165.503906 186.460938 C 164.675781 186.804688 163.824219 187.0625 162.945312 187.238281 C 162.0625 187.414062 161.175781 187.5 160.28125 187.5 C 159.382812 187.5 158.496094 187.414062 157.613281 187.238281 C 156.734375 187.0625 155.882812 186.804688 155.054688 186.460938 C 154.222656 186.121094 153.4375 185.699219 152.691406 185.203125 C 151.945312 184.703125 151.257812 184.140625 150.621094 183.507812 C 149.988281 182.871094 149.421875 182.183594 148.925781 181.441406 C 148.425781 180.695312 148.003906 179.910156 147.660156 179.082031 C 147.320312 178.253906 147.058594 177.402344 146.882812 176.523438 C 146.710938 175.644531 146.621094 174.757812 146.621094 173.863281 C 146.621094 172.96875 146.710938 172.082031 146.882812 171.203125 C 147.058594 170.324219 147.320312 169.472656 147.660156 168.644531 C 148.003906 167.816406 148.425781 167.03125 148.925781 166.289062 C 149.421875 165.542969 149.988281 164.855469 150.621094 164.222656 C 151.257812 163.589844 151.945312 163.023438 152.691406 162.527344 C 153.4375 162.027344 154.222656 161.609375 155.054688 161.265625 C 155.882812 160.921875 156.734375 160.664062 157.613281 160.488281 C 158.496094 160.316406 159.382812 160.226562 160.28125 160.226562 C 161.175781 160.226562 162.0625 160.316406 162.945312 160.488281 C 163.824219 160.664062 164.675781 160.921875 165.503906 161.265625 C 166.335938 161.609375 167.121094 162.027344 167.867188 162.527344 C 168.613281 163.023438 169.300781 163.589844 169.9375 164.222656 C 170.570312 164.855469 171.136719 165.542969 171.636719 166.289062 C 172.132812 167.03125 172.554688 167.816406 172.898438 168.644531 C 173.238281 169.472656 173.5 170.324219 173.675781 171.203125 C 173.847656 172.082031 173.9375 172.96875 173.9375 173.863281 Z M 173.9375 173.863281 " fill-opacity="1" fill-rule="nonzero"/><g clip-path="url(#ff0dbf797e)"><path fill="#000000" d="M 237.414062 233.945312 C 224.421875 224.507812 214.90625 222.148438 214.90625 217.433594 L 214.90625 187.5 L 217.898438 160.65625 C 217.898438 160.65625 202.109375 154.316406 187.59375 154.316406 C 173.074219 154.316406 157.609375 160.445312 157.609375 160.445312 L 160.28125 187.5 L 160.28125 217.738281 C 160.28125 222.785156 147.597656 228.710938 140.46875 233.128906 C 131.523438 238.683594 126.136719 242.40625 126.136719 250.0625 C 126.136719 258.804688 135.382812 262.5 143.453125 262.5 C 149.621094 262.5 166.464844 262.5 166.464844 262.5 C 166.464844 262.5 157.71875 259.003906 157.71875 249.585938 C 157.71875 237.253906 174.050781 233.25 186.699219 231.386719 C 191 230.753906 197.855469 230.242188 197.855469 230.242188 L 214.90625 235.226562 C 214.90625 235.226562 204.003906 236.925781 188.699219 239.550781 C 176.605469 241.621094 167.109375 244.070312 167.109375 251.769531 C 167.109375 260.378906 174.078125 262.5 178.203125 262.5 C 182.328125 262.5 217.269531 262.5 223.121094 262.5 C 228.976562 262.5 249.050781 262.289062 249.050781 251.101562 C 249.050781 240.519531 243.914062 238.671875 237.414062 233.945312 Z M 187.59375 175.621094 C 183.40625 175.621094 179.441406 184.199219 173.9375 194.316406 C 173.9375 194.316406 177.679688 167.046875 187.59375 167.046875 C 197.507812 167.046875 201.25 194.316406 201.25 194.316406 C 196.402344 185.523438 191.78125 175.621094 187.59375 175.621094 Z M 187.59375 175.621094 " fill-opacity="1" fill-rule="nonzero"/></g></svg>