<svg xmlns="http://www.w3.org/2000/svg" xmlns:xlink="http://www.w3.org/1999/xlink" width="500" zoomAndPan="magnify" viewBox="0 0 375 374.999991" height="500" preserveAspectRatio="xMidYMid meet" version="1.0"><defs><clipPath id="fc99400275"><path d="M 167 112.5 L 208 112.5 L 208 154 L 167 154 Z M 167 112.5 " clip-rule="nonzero"/></clipPath><clipPath id="765e231f74"><path d="M 126.09375 154 L 249 154 L 249 262.5 L 126.09375 262.5 Z M 126.09375 154 " clip-rule="nonzero"/></clipPath></defs><g clip-path="url(#fc99400275)"><path fill="#ffffff" d="M 207.953125 132.953125 C 207.953125 133.625 207.921875 134.292969 207.855469 134.960938 C 207.789062 135.625 207.691406 136.289062 207.5625 136.945312 C 207.429688 137.601562 207.269531 138.25 207.074219 138.890625 C 206.878906 139.535156 206.652344 140.164062 206.398438 140.78125 C 206.140625 141.402344 205.855469 142.007812 205.539062 142.597656 C 205.222656 143.1875 204.878906 143.761719 204.507812 144.320312 C 204.136719 144.875 203.738281 145.414062 203.3125 145.929688 C 202.886719 146.449219 202.4375 146.945312 201.964844 147.417969 C 201.488281 147.890625 200.992188 148.339844 200.476562 148.765625 C 199.957031 149.191406 199.421875 149.589844 198.863281 149.960938 C 198.308594 150.335938 197.734375 150.679688 197.140625 150.992188 C 196.550781 151.308594 195.945312 151.597656 195.328125 151.851562 C 194.707031 152.109375 194.078125 152.332031 193.4375 152.527344 C 192.796875 152.722656 192.148438 152.886719 191.492188 153.015625 C 190.832031 153.148438 190.171875 153.246094 189.503906 153.3125 C 188.839844 153.375 188.167969 153.410156 187.5 153.410156 C 186.828125 153.410156 186.160156 153.375 185.496094 153.3125 C 184.828125 153.246094 184.167969 153.148438 183.507812 153.015625 C 182.851562 152.886719 182.203125 152.722656 181.5625 152.527344 C 180.921875 152.332031 180.292969 152.109375 179.671875 151.851562 C 179.054688 151.597656 178.449219 151.308594 177.859375 150.992188 C 177.265625 150.679688 176.691406 150.335938 176.136719 149.960938 C 175.578125 149.589844 175.042969 149.191406 174.523438 148.765625 C 174.007812 148.339844 173.511719 147.890625 173.035156 147.417969 C 172.5625 146.945312 172.113281 146.449219 171.6875 145.929688 C 171.261719 145.414062 170.863281 144.875 170.492188 144.320312 C 170.121094 143.761719 169.777344 143.1875 169.460938 142.597656 C 169.144531 142.007812 168.859375 141.402344 168.601562 140.78125 C 168.347656 140.164062 168.121094 139.535156 167.925781 138.890625 C 167.730469 138.25 167.570312 137.601562 167.4375 136.945312 C 167.308594 136.289062 167.210938 135.625 167.144531 134.960938 C 167.078125 134.292969 167.046875 133.625 167.046875 132.953125 C 167.046875 132.285156 167.078125 131.617188 167.144531 130.949219 C 167.210938 130.28125 167.308594 129.621094 167.4375 128.964844 C 167.570312 128.308594 167.730469 127.65625 167.925781 127.015625 C 168.121094 126.375 168.347656 125.746094 168.601562 125.125 C 168.859375 124.507812 169.144531 123.902344 169.460938 123.3125 C 169.777344 122.722656 170.121094 122.148438 170.492188 121.589844 C 170.863281 121.035156 171.261719 120.496094 171.6875 119.976562 C 172.113281 119.460938 172.5625 118.964844 173.035156 118.492188 C 173.511719 118.015625 174.007812 117.566406 174.523438 117.144531 C 175.042969 116.71875 175.578125 116.320312 176.136719 115.945312 C 176.691406 115.574219 177.265625 115.230469 177.859375 114.914062 C 178.449219 114.597656 179.054688 114.3125 179.671875 114.058594 C 180.292969 113.800781 180.921875 113.574219 181.5625 113.378906 C 182.203125 113.1875 182.851562 113.023438 183.507812 112.894531 C 184.167969 112.761719 184.828125 112.664062 185.496094 112.597656 C 186.160156 112.53125 186.828125 112.5 187.5 112.5 C 188.167969 112.5 188.839844 112.53125 189.503906 112.597656 C 190.171875 112.664062 190.832031 112.761719 191.492188 112.894531 C 192.148438 113.023438 192.796875 113.1875 193.4375 113.378906 C 194.078125 113.574219 194.707031 113.800781 195.328125 114.058594 C 195.945312 114.3125 196.550781 114.597656 197.140625 114.914062 C 197.734375 115.230469 198.308594 115.574219 198.863281 115.945312 C 199.421875 116.320312 199.957031 116.71875 200.476562 117.144531 C 200.992188 117.566406 201.488281 118.015625 201.964844 118.492188 C 202.4375 118.964844 202.886719 119.460938 203.3125 119.976562 C 203.738281 120.496094 204.136719 121.035156 204.507812 121.589844 C 204.878906 122.148438 205.222656 122.722656 205.539062 123.3125 C 205.855469 123.902344 206.140625 124.507812 206.398438 125.125 C 206.652344 125.746094 206.878906 126.375 207.074219 127.015625 C 207.269531 127.65625 207.429688 128.308594 207.5625 128.964844 C 207.691406 129.621094 207.789062 130.28125 207.855469 130.949219 C 207.921875 131.617188 207.953125 132.285156 207.953125 132.953125 Z M 207.953125 132.953125 " fill-opacity="1" fill-rule="nonzero"/></g><path fill="#ffffff" d="M 228.410156 173.863281 C 228.410156 174.757812 228.320312 175.644531 228.148438 176.523438 C 227.972656 177.402344 227.714844 178.253906 227.371094 179.082031 C 227.027344 179.910156 226.609375 180.695312 226.109375 181.441406 C 225.613281 182.183594 225.046875 182.871094 224.414062 183.507812 C 223.78125 184.140625 223.09375 184.703125 222.347656 185.203125 C 221.605469 185.699219 220.816406 186.121094 219.992188 186.460938 C 219.164062 186.804688 218.3125 187.0625 217.433594 187.238281 C 216.554688 187.414062 215.667969 187.5 214.773438 187.5 C 213.878906 187.5 212.992188 187.414062 212.113281 187.238281 C 211.234375 187.0625 210.382812 186.804688 209.554688 186.460938 C 208.726562 186.121094 207.941406 185.699219 207.195312 185.203125 C 206.453125 184.703125 205.761719 184.140625 205.128906 183.507812 C 204.496094 182.871094 203.933594 182.183594 203.433594 181.441406 C 202.9375 180.695312 202.515625 179.910156 202.175781 179.082031 C 201.832031 178.253906 201.574219 177.402344 201.398438 176.523438 C 201.222656 175.644531 201.136719 174.757812 201.136719 173.863281 C 201.136719 172.96875 201.222656 172.082031 201.398438 171.203125 C 201.574219 170.324219 201.832031 169.472656 202.175781 168.644531 C 202.515625 167.816406 202.9375 167.03125 203.433594 166.289062 C 203.933594 165.542969 204.496094 164.855469 205.128906 164.222656 C 205.761719 163.589844 206.453125 163.023438 207.195312 162.527344 C 207.941406 162.027344 208.726562 161.609375 209.554688 161.265625 C 210.382812 160.921875 211.234375 160.664062 212.113281 160.488281 C 212.992188 160.316406 213.878906 160.226562 214.773438 160.226562 C 215.667969 160.226562 216.554688 160.316406 217.433594 160.488281 C 218.3125 160.664062 219.164062 160.921875 219.992188 161.265625 C 220.816406 161.609375 221.605469 162.027344 222.347656 162.527344 C 223.09375 163.023438 223.78125 163.589844 224.414062 164.222656 C 225.046875 164.855469 225.613281 165.542969 226.109375 166.289062 C 226.609375 167.03125 227.027344 167.816406 227.371094 168.644531 C 227.714844 169.472656 227.972656 170.324219 228.148438 171.203125 C 228.320312 172.082031 228.410156 172.96875 228.410156 173.863281 Z M 228.410156 173.863281 " fill-opacity="1" fill-rule="nonzero"/><path fill="#ffffff" d="M 196.949219 213.128906 C 196.949219 213.128906 221.632812 216.988281 226.992188 218.773438 C 232.0625 220.464844 234.367188 220.828125 236.6875 219.539062 C 241.949219 216.613281 242.679688 211.65625 240.511719 206.019531 C 238.214844 200.058594 230.175781 175.882812 227.882812 169.921875 C 227.882812 169.921875 210.410156 167.148438 210.410156 167.148438 C 211.070312 167.25 211.664062 179.851562 211.480469 180.832031 C 211.164062 182.460938 193.390625 211.546875 196.949219 213.128906 Z M 196.949219 213.128906 " fill-opacity="1" fill-rule="nonzero"/><path fill="#ffffff" d="M 178.050781 213.128906 C 178.050781 213.128906 153.367188 216.988281 148.007812 218.773438 C 142.9375 220.464844 140.632812 220.828125 138.3125 219.539062 C 133.050781 216.613281 132.320312 211.65625 134.488281 206.019531 C 136.785156 200.058594 144.824219 175.882812 147.117188 169.921875 C 147.117188 169.921875 164.589844 167.148438 164.589844 167.148438 C 163.929688 167.25 163.335938 179.851562 163.519531 180.832031 C 163.835938 182.460938 181.609375 211.546875 178.050781 213.128906 Z M 178.050781 213.128906 " fill-opacity="1" fill-rule="nonzero"/><path fill="#ffffff" d="M 173.863281 173.863281 C 173.863281 174.757812 173.777344 175.644531 173.601562 176.523438 C 173.425781 177.402344 173.167969 178.253906 172.824219 179.082031 C 172.484375 179.910156 172.0625 180.695312 171.566406 181.441406 C 171.066406 182.183594 170.503906 182.871094 169.871094 183.507812 C 169.238281 184.140625 168.546875 184.703125 167.804688 185.203125 C 167.058594 185.699219 166.273438 186.121094 165.445312 186.460938 C 164.617188 186.804688 163.765625 187.0625 162.886719 187.238281 C 162.007812 187.414062 161.121094 187.5 160.226562 187.5 C 159.332031 187.5 158.445312 187.414062 157.566406 187.238281 C 156.6875 187.0625 155.835938 186.804688 155.007812 186.460938 C 154.179688 186.121094 153.394531 185.699219 152.652344 185.203125 C 151.90625 184.703125 151.21875 184.140625 150.585938 183.507812 C 149.953125 182.871094 149.386719 182.183594 148.890625 181.441406 C 148.390625 180.695312 147.972656 179.910156 147.628906 179.082031 C 147.285156 178.253906 147.027344 177.402344 146.851562 176.523438 C 146.679688 175.644531 146.589844 174.757812 146.589844 173.863281 C 146.589844 172.96875 146.679688 172.082031 146.851562 171.203125 C 147.027344 170.324219 147.285156 169.472656 147.628906 168.644531 C 147.972656 167.816406 148.390625 167.03125 148.890625 166.289062 C 149.386719 165.542969 149.953125 164.855469 150.585938 164.222656 C 151.21875 163.589844 151.90625 163.023438 152.652344 162.527344 C 153.394531 162.027344 154.179688 161.609375 155.007812 161.265625 C 155.835938 160.921875 156.6875 160.664062 157.566406 160.488281 C 158.445312 160.316406 159.332031 160.226562 160.226562 160.226562 C 161.121094 160.226562 162.007812 160.316406 162.886719 160.488281 C 163.765625 160.664062 164.617188 160.921875 165.445312 161.265625 C 166.273438 161.609375 167.058594 162.027344 167.804688 162.527344 C 168.546875 163.023438 169.238281 163.589844 169.871094 164.222656 C 170.503906 164.855469 171.066406 165.542969 171.566406 166.289062 C 172.0625 167.03125 172.484375 167.816406 172.824219 168.644531 C 173.167969 169.472656 173.425781 170.324219 173.601562 171.203125 C 173.777344 172.082031 173.863281 172.96875 173.863281 173.863281 Z M 173.863281 173.863281 " fill-opacity="1" fill-rule="nonzero"/><g clip-path="url(#765e231f74)"><path fill="#ffffff" d="M 237.246094 233.945312 C 224.269531 224.507812 214.773438 222.148438 214.773438 217.433594 L 214.773438 187.5 L 217.757812 160.65625 C 217.757812 160.65625 201.996094 154.316406 187.5 154.316406 C 173.003906 154.316406 157.5625 160.445312 157.5625 160.445312 L 160.226562 187.5 L 160.226562 217.738281 C 160.226562 222.785156 147.566406 228.710938 140.449219 233.128906 C 131.515625 238.683594 126.136719 242.40625 126.136719 250.0625 C 126.136719 258.804688 135.367188 262.5 143.425781 262.5 C 149.585938 262.5 166.40625 262.5 166.40625 262.5 C 166.40625 262.5 157.671875 259.003906 157.671875 249.585938 C 157.671875 237.253906 173.980469 233.25 186.605469 231.386719 C 190.902344 230.753906 197.746094 230.242188 197.746094 230.242188 L 214.773438 235.226562 C 214.773438 235.226562 203.882812 236.925781 188.605469 239.550781 C 176.53125 241.621094 167.046875 244.070312 167.046875 251.769531 C 167.046875 260.378906 174.007812 262.5 178.125 262.5 C 182.242188 262.5 217.132812 262.5 222.976562 262.5 C 228.816406 262.5 248.863281 262.289062 248.863281 251.101562 C 248.863281 240.519531 243.738281 238.671875 237.246094 233.945312 Z M 187.5 175.621094 C 183.320312 175.621094 179.359375 184.199219 173.863281 194.316406 C 173.863281 194.316406 177.601562 167.046875 187.5 167.046875 C 197.398438 167.046875 201.136719 194.316406 201.136719 194.316406 C 196.296875 185.523438 191.679688 175.621094 187.5 175.621094 Z M 187.5 175.621094 " fill-opacity="1" fill-rule="nonzero"/></g></svg>