<svg version="1.2" xmlns="http://www.w3.org/2000/svg" viewBox="0 0 50 43" width="50" height="43">
	<title>27-svg</title>
	<defs>
		<clipPath clipPathUnits="userSpaceOnUse" id="cp1">
			<path d="m0.17 0h49.83v42.97h-49.83z"/>
		</clipPath>
	</defs>
	<style>
		.s0 { fill: #000000 } 
	</style>
	<g id="Clip-Path" clip-path="url(#cp1)">
		<g id="Layer">
			<path id="Layer" fill-rule="evenodd" class="s0" d="m50 20.1c-0.3 10.7-11.6 19.1-25.3 18.9-3.1-0.1-6-0.6-8.7-1.5l-12.6 5.5c0 0 4.2-8.7 0.3-13.7-2.3-3-3.5-6.5-3.5-10.2 0.3-10.7 11.6-19.1 25.3-18.9 13.7 0.3 24.7 9.2 24.5 19.9zm-22.3-0.5c0-1.7-1.3-3-3-3-1.7 0-3.1 1.3-3.1 3 0 1.7 1.4 3.1 3.1 3.1 1.7 0 3-1.4 3-3.1zm-10.2 0c0-1.7-1.3-3-3-3-1.7 0-3.1 1.3-3.1 3 0 1.7 1.4 3.1 3.1 3.1 1.7 0 3-1.4 3-3.1zm20.4 0c0-1.7-1.3-3-3-3-1.7 0-3.1 1.3-3.1 3 0 1.7 1.4 3.1 3.1 3.1 1.7 0 3-1.4 3-3.1z"/>
		</g>
	</g>
</svg>