<svg xmlns="http://www.w3.org/2000/svg" xmlns:xlink="http://www.w3.org/1999/xlink" width="500" zoomAndPan="magnify" viewBox="0 0 375 374.999991" height="500" preserveAspectRatio="xMidYMid meet" version="1.0"><defs><clipPath id="6cc1a4b4da"><path d="M 112.5 123 L 262 123 L 262 251.90625 L 112.5 251.90625 Z M 112.5 123 " clip-rule="nonzero"/></clipPath></defs><g clip-path="url(#6cc1a4b4da)"><path fill="#000000" d="M 216.660156 191.03125 C 211.582031 191.03125 207.472656 186.921875 207.472656 181.855469 C 207.472656 176.789062 211.582031 172.683594 216.660156 172.683594 C 221.730469 172.683594 225.84375 176.789062 225.84375 181.855469 C 225.84375 186.921875 221.730469 191.03125 216.660156 191.03125 Z M 186.035156 191.03125 C 180.960938 191.03125 176.847656 186.921875 176.847656 181.855469 C 176.847656 176.789062 180.960938 172.683594 186.035156 172.683594 C 191.109375 172.683594 195.222656 176.789062 195.222656 181.855469 C 195.222656 186.921875 191.109375 191.03125 186.035156 191.03125 Z M 155.410156 191.03125 C 150.335938 191.03125 146.222656 186.921875 146.222656 181.855469 C 146.222656 176.789062 150.335938 172.683594 155.410156 172.683594 C 160.484375 172.683594 164.597656 176.789062 164.597656 181.855469 C 164.597656 186.921875 160.484375 191.03125 155.410156 191.03125 Z M 188.441406 123.734375 C 147.253906 122.921875 113.351562 148.265625 112.71875 180.339844 C 112.496094 191.488281 116.332031 201.984375 123.152344 210.96875 L 123.148438 210.96875 C 134.882812 226.015625 122.078125 251.890625 122.078125 251.890625 L 159.878906 235.632812 C 168.023438 238.203125 176.875 239.699219 186.148438 239.882812 C 227.335938 240.691406 261.238281 215.347656 261.871094 183.273438 C 262.503906 151.203125 229.628906 124.546875 188.441406 123.734375 " fill-opacity="1" fill-rule="evenodd"/></g></svg>