<svg xmlns="http://www.w3.org/2000/svg" xmlns:xlink="http://www.w3.org/1999/xlink" width="500" zoomAndPan="magnify" viewBox="0 0 375 374.999991" height="500" preserveAspectRatio="xMidYMid meet" version="1.0"><defs><clipPath id="48c90b6660"><path d="M 112.5 123 L 262 123 L 262 251.90625 L 112.5 251.90625 Z M 112.5 123 " clip-rule="nonzero"/></clipPath></defs><g clip-path="url(#48c90b6660)"><path fill="#ffffff" d="M 216.660156 191.128906 C 211.582031 191.128906 207.472656 187.015625 207.472656 181.941406 C 207.472656 176.867188 211.582031 172.753906 216.660156 172.753906 C 221.730469 172.753906 225.84375 176.867188 225.84375 181.941406 C 225.84375 187.015625 221.730469 191.128906 216.660156 191.128906 Z M 186.035156 191.128906 C 180.960938 191.128906 176.847656 187.015625 176.847656 181.941406 C 176.847656 176.867188 180.960938 172.753906 186.035156 172.753906 C 191.109375 172.753906 195.222656 176.867188 195.222656 181.941406 C 195.222656 187.015625 191.109375 191.128906 186.035156 191.128906 Z M 155.410156 191.128906 C 150.335938 191.128906 146.222656 187.015625 146.222656 181.941406 C 146.222656 176.867188 150.335938 172.753906 155.410156 172.753906 C 160.484375 172.753906 164.597656 176.867188 164.597656 181.941406 C 164.597656 187.015625 160.484375 191.128906 155.410156 191.128906 Z M 188.441406 123.734375 C 147.253906 122.921875 113.351562 148.304688 112.71875 180.421875 C 112.496094 191.589844 116.332031 202.101562 123.152344 211.09375 L 123.148438 211.09375 C 134.882812 226.167969 122.078125 252.078125 122.078125 252.078125 L 159.878906 235.796875 C 168.023438 238.367188 176.875 239.867188 186.148438 240.050781 C 227.335938 240.863281 261.238281 215.484375 261.871094 183.363281 C 262.503906 151.242188 229.628906 124.546875 188.441406 123.734375 " fill-opacity="1" fill-rule="evenodd"/></g></svg>