<svg xmlns="http://www.w3.org/2000/svg" xmlns:xlink="http://www.w3.org/1999/xlink" width="500" zoomAndPan="magnify" viewBox="0 0 375 374.999991" height="500" preserveAspectRatio="xMidYMid meet" version="1.0"><defs><clipPath id="909912998d"><path d="M 113 205 L 262 205 L 262 261.84375 L 113 261.84375 Z M 113 205 " clip-rule="nonzero"/></clipPath><clipPath id="1e6e6df399"><path d="M 169 113.34375 L 206 113.34375 L 206 150 L 169 150 Z M 169 113.34375 " clip-rule="nonzero"/></clipPath></defs><path fill="#ffffff" d="M 238.554688 184.359375 C 237.457031 183.855469 236.476562 183.171875 235.648438 182.285156 L 229.070312 175.230469 L 223.585938 187.558594 L 225.601562 190.050781 C 229.71875 195.148438 236.035156 198.023438 242.582031 197.785156 L 246.140625 197.667969 L 251.652344 185.335938 L 242.019531 185.128906 C 240.835938 185.097656 239.648438 184.832031 238.554688 184.359375 Z M 238.554688 184.359375 " fill-opacity="1" fill-rule="nonzero"/><path fill="#ffffff" d="M 224.058594 181.214844 C 224.535156 180.179688 224.414062 179.347656 223.96875 178.816406 L 227.46875 170.992188 L 236.894531 181.097656 C 238.226562 182.519531 240.09375 183.351562 242.050781 183.410156 L 260.1875 183.796875 C 261.40625 183.824219 262.054688 182.371094 261.226562 181.484375 L 248.867188 168.265625 C 247.535156 166.839844 245.667969 166.011719 243.710938 165.953125 L 225.570312 165.566406 C 224.355469 165.539062 223.703125 166.988281 224.535156 167.878906 L 226.609375 170.101562 L 222.933594 178.28125 C 222.191406 178.195312 221.453125 178.726562 221.125 179.46875 C 220.445312 180.980469 221.363281 181.214844 220.382812 184.328125 C 220.265625 185.839844 223.675781 182.105469 224.058594 181.214844 Z M 224.058594 181.214844 " fill-opacity="1" fill-rule="nonzero"/><path fill="#ffffff" d="M 187.457031 201.964844 C 198.835938 201.964844 208.054688 189.335938 208.054688 177.957031 C 208.054688 166.574219 198.835938 157.328125 187.457031 157.328125 C 176.074219 157.328125 166.855469 166.546875 166.855469 177.957031 C 166.855469 189.335938 176.074219 201.964844 187.457031 201.964844 Z M 187.457031 201.964844 " fill-opacity="1" fill-rule="nonzero"/><g clip-path="url(#909912998d)"><path fill="#ffffff" d="M 252.277344 209.640625 L 236.714844 215.09375 L 211.847656 205.933594 C 211.757812 205.90625 211.671875 205.875 211.582031 205.847656 C 210.425781 205.402344 209.210938 205.136719 207.90625 205.136719 L 167.035156 205.136719 C 165.730469 205.136719 164.484375 205.402344 163.359375 205.847656 C 163.269531 205.875 163.179688 205.90625 163.09375 205.933594 L 138.226562 215.09375 L 122.636719 209.640625 C 119.019531 208.367188 115.046875 210.261719 113.804688 213.878906 C 112.527344 217.496094 114.457031 221.464844 118.070312 222.742188 L 136.003906 229.023438 C 136.742188 229.289062 137.515625 229.410156 138.3125 229.410156 C 139.113281 229.410156 139.945312 229.261719 140.714844 228.996094 L 156.1875 223.304688 L 152.628906 253.683594 C 151.917969 257.832031 155.089844 261.65625 159.328125 261.65625 L 215.703125 261.65625 C 219.910156 261.65625 223.109375 257.832031 222.398438 253.683594 L 218.84375 223.304688 L 234.316406 228.996094 C 235.085938 229.289062 235.886719 229.410156 236.714844 229.410156 C 237.484375 229.410156 238.257812 229.289062 239.027344 229.023438 L 256.957031 222.742188 C 260.574219 221.464844 262.472656 217.523438 261.195312 213.90625 C 259.863281 210.261719 255.890625 208.367188 252.277344 209.640625 Z M 252.277344 209.640625 " fill-opacity="1" fill-rule="nonzero"/></g><path fill="#ffffff" d="M 131.347656 171.878906 C 131.4375 171.851562 131.527344 171.792969 131.585938 171.703125 C 131.617188 171.671875 131.617188 171.644531 131.644531 171.644531 C 131.675781 171.582031 131.703125 171.523438 131.734375 171.464844 C 131.765625 171.40625 131.765625 171.316406 131.765625 171.257812 C 131.765625 171.050781 131.617188 170.902344 131.410156 170.84375 C 131.320312 170.8125 131.199219 170.8125 131.082031 170.8125 L 123.050781 172.117188 C 123.019531 172.117188 122.960938 172.148438 122.933594 172.148438 C 122.8125 172.175781 122.695312 172.265625 122.636719 172.355469 C 122.515625 172.472656 122.457031 172.621094 122.457031 172.800781 C 122.457031 172.917969 122.515625 173.035156 122.636719 173.125 C 122.695312 173.15625 122.753906 173.183594 122.8125 173.214844 C 122.84375 173.214844 122.871094 173.242188 122.902344 173.242188 C 122.960938 173.273438 123.050781 173.273438 123.140625 173.242188 L 131.171875 171.941406 C 131.230469 171.910156 131.289062 171.910156 131.347656 171.878906 Z M 131.347656 171.878906 " fill-opacity="1" fill-rule="nonzero"/><path fill="#ffffff" d="M 133.214844 176.621094 C 133.246094 176.621094 133.277344 176.59375 133.304688 176.59375 C 133.570312 176.472656 133.75 176.238281 133.71875 175.96875 C 133.691406 175.644531 133.394531 175.464844 133.039062 175.527344 L 125.007812 176.828125 C 124.652344 176.890625 124.382812 177.1875 124.414062 177.480469 C 124.445312 177.777344 124.738281 177.984375 125.09375 177.925781 L 133.128906 176.621094 C 133.15625 176.621094 133.1875 176.621094 133.214844 176.621094 Z M 133.214844 176.621094 " fill-opacity="1" fill-rule="nonzero"/><path fill="#ffffff" d="M 126.578125 181.75 C 126.457031 181.867188 126.398438 182.015625 126.398438 182.195312 C 126.429688 182.519531 126.726562 182.699219 127.082031 182.640625 L 135.113281 181.335938 C 135.144531 181.335938 135.171875 181.335938 135.203125 181.304688 C 135.230469 181.304688 135.261719 181.277344 135.292969 181.277344 C 135.378906 181.246094 135.46875 181.1875 135.527344 181.097656 C 135.648438 180.980469 135.734375 180.832031 135.707031 180.652344 C 135.675781 180.355469 135.378906 180.148438 135.023438 180.207031 L 126.992188 181.511719 C 126.84375 181.542969 126.695312 181.632812 126.578125 181.75 Z M 126.578125 181.75 " fill-opacity="1" fill-rule="nonzero"/><path fill="#ffffff" d="M 128.828125 186.253906 C 128.742188 186.285156 128.683594 186.3125 128.621094 186.375 C 128.445312 186.492188 128.355469 186.699219 128.355469 186.878906 C 128.355469 186.996094 128.414062 187.113281 128.535156 187.203125 C 128.59375 187.234375 128.652344 187.261719 128.710938 187.292969 C 128.800781 187.320312 128.917969 187.351562 129.039062 187.320312 L 137.070312 186.019531 C 137.128906 186.019531 137.1875 185.988281 137.246094 185.957031 C 137.335938 185.929688 137.425781 185.871094 137.484375 185.78125 C 137.515625 185.75 137.515625 185.722656 137.542969 185.722656 C 137.574219 185.664062 137.601562 185.601562 137.632812 185.542969 C 137.664062 185.484375 137.664062 185.394531 137.664062 185.335938 C 137.664062 185.277344 137.632812 185.21875 137.601562 185.160156 C 137.542969 185.039062 137.425781 184.980469 137.308594 184.921875 C 137.21875 184.890625 137.097656 184.890625 136.980469 184.890625 L 128.949219 186.195312 C 128.917969 186.226562 128.890625 186.253906 128.828125 186.253906 Z M 128.828125 186.253906 " fill-opacity="1" fill-rule="nonzero"/><path fill="#ffffff" d="M 121.300781 192.894531 C 121.332031 192.953125 121.359375 193.011719 121.390625 193.101562 C 122.457031 195.441406 125.628906 196.300781 128.503906 195.117188 L 142.226562 189.425781 L 143.054688 189.070312 L 143.085938 189.070312 L 156.78125 183.320312 C 159.625 182.136719 161.226562 179.261719 160.335938 176.828125 C 160.304688 176.769531 160.277344 176.710938 160.277344 176.621094 L 152.570312 158.1875 L 150.199219 159.492188 L 149.371094 157.476562 L 147.175781 158.957031 L 146.347656 156.941406 L 135.351562 164.828125 C 134.371094 165.539062 133.839844 166.8125 133.839844 168.207031 C 132.832031 167.226562 131.585938 166.695312 130.371094 166.902344 L 117.09375 169.09375 L 117.921875 171.109375 L 115.316406 171.644531 L 116.144531 173.660156 L 113.566406 174.429688 Z M 148.570312 159.164062 L 155.890625 176.652344 C 156.570312 178.28125 156.128906 180.179688 154.882812 181.039062 L 149.636719 184.03125 L 153.074219 181.542969 C 154.585938 180.445312 155.03125 178.015625 154.113281 175.824219 L 147.472656 159.9375 Z M 135.144531 167.316406 C 135.261719 166.546875 135.617188 165.921875 136.0625 165.597656 L 145.546875 158.722656 L 152.898438 176.324219 C 153.726562 178.28125 153.253906 180.148438 152.363281 180.800781 L 142.878906 187.679688 L 135.527344 170.074219 C 135.203125 169.273438 135.082031 168.5 135.113281 167.820312 C 135.113281 167.640625 135.144531 167.464844 135.144531 167.316406 Z M 130.371094 167.96875 C 130.90625 167.878906 131.585938 168.058594 132.238281 168.53125 C 132.355469 168.621094 132.503906 168.738281 132.625 168.855469 C 133.128906 169.332031 133.601562 169.953125 133.929688 170.722656 L 141.277344 188.328125 L 129.71875 190.226562 C 128.59375 190.40625 126.960938 189.425781 126.164062 187.46875 L 118.8125 169.863281 Z M 118.335938 172.085938 L 124.976562 187.972656 C 125.894531 190.195312 127.910156 191.558594 129.777344 191.265625 L 133.988281 190.554688 L 128.179688 192.183594 C 126.667969 192.480469 125.035156 191.441406 124.355469 189.8125 L 117.035156 172.324219 Z M 118.335938 172.085938 " fill-opacity="1" fill-rule="nonzero"/><path fill="#ffffff" d="M 138.195312 169.003906 C 138.253906 168.976562 138.3125 168.945312 138.375 168.917969 L 144.953125 164.113281 C 145.25 163.90625 145.308594 163.550781 145.101562 163.316406 C 145.070312 163.285156 145.042969 163.253906 145.011719 163.226562 C 144.953125 163.167969 144.863281 163.167969 144.777344 163.136719 C 144.65625 163.105469 144.539062 163.105469 144.421875 163.167969 C 144.332031 163.195312 144.273438 163.226562 144.210938 163.285156 L 137.632812 168.085938 C 137.335938 168.292969 137.277344 168.648438 137.484375 168.886719 C 137.632812 169.09375 137.929688 169.125 138.195312 169.003906 Z M 138.195312 169.003906 " fill-opacity="1" fill-rule="nonzero"/><path fill="#ffffff" d="M 139.410156 173.597656 C 139.5 173.6875 139.617188 173.746094 139.738281 173.777344 C 139.765625 173.777344 139.796875 173.777344 139.824219 173.777344 C 139.824219 173.777344 139.796875 173.777344 139.796875 173.777344 C 139.824219 173.777344 139.886719 173.777344 139.914062 173.777344 C 139.945312 173.777344 139.945312 173.777344 139.945312 173.777344 C 139.945312 173.777344 139.972656 173.777344 139.972656 173.777344 C 139.972656 173.777344 139.972656 173.777344 139.945312 173.777344 C 140.003906 173.777344 140.0625 173.746094 140.09375 173.746094 C 140.152344 173.71875 140.210938 173.6875 140.242188 173.660156 L 146.820312 168.855469 C 147.117188 168.648438 147.175781 168.292969 146.96875 168.058594 C 146.820312 167.878906 146.554688 167.820312 146.289062 167.910156 C 146.199219 167.9375 146.140625 167.96875 146.050781 168.027344 L 139.46875 172.828125 C 139.292969 173.007812 139.203125 173.363281 139.410156 173.597656 Z M 139.410156 173.597656 " fill-opacity="1" fill-rule="nonzero"/><path fill="#ffffff" d="M 141.367188 178.28125 C 141.546875 178.460938 141.8125 178.519531 142.078125 178.402344 C 142.078125 178.402344 142.109375 178.402344 142.109375 178.402344 C 142.136719 178.402344 142.136719 178.371094 142.136719 178.371094 C 142.167969 178.339844 142.226562 178.339844 142.257812 178.3125 L 148.835938 173.511719 C 149.132812 173.304688 149.191406 172.949219 148.984375 172.710938 C 148.925781 172.652344 148.867188 172.589844 148.777344 172.5625 C 148.71875 172.53125 148.597656 172.503906 148.539062 172.503906 C 148.390625 172.503906 148.214844 172.5625 148.09375 172.652344 L 141.546875 177.480469 C 141.25 177.691406 141.1875 178.046875 141.367188 178.28125 Z M 141.367188 178.28125 " fill-opacity="1" fill-rule="nonzero"/><path fill="#ffffff" d="M 143.351562 182.996094 C 143.53125 183.203125 143.828125 183.230469 144.09375 183.113281 C 144.152344 183.082031 144.210938 183.054688 144.273438 183.023438 L 150.851562 178.222656 C 150.882812 178.195312 150.941406 178.164062 150.96875 178.105469 C 151 178.046875 151.03125 178.015625 151.058594 177.984375 C 151.117188 177.898438 151.117188 177.808594 151.117188 177.71875 C 151.117188 177.660156 151.117188 177.601562 151.089844 177.570312 C 151.058594 177.511719 151.03125 177.453125 151 177.421875 C 150.96875 177.394531 150.941406 177.363281 150.910156 177.332031 C 150.851562 177.273438 150.761719 177.273438 150.671875 177.246094 C 150.554688 177.214844 150.4375 177.214844 150.316406 177.273438 C 150.289062 177.273438 150.257812 177.304688 150.199219 177.332031 C 150.171875 177.363281 150.140625 177.363281 150.082031 177.394531 L 143.5 182.195312 C 143.203125 182.402344 143.144531 182.757812 143.351562 182.996094 Z M 143.351562 182.996094 " fill-opacity="1" fill-rule="nonzero"/><g clip-path="url(#1e6e6df399)"><path fill="#ffffff" d="M 174.265625 143.308594 C 174.324219 143.398438 174.414062 143.457031 174.472656 143.546875 C 177.734375 147.011719 182.148438 149 186.921875 149.148438 C 187.011719 149.148438 187.101562 149.148438 187.21875 149.148438 C 187.308594 149.148438 187.367188 149.148438 187.457031 149.148438 C 187.542969 149.148438 187.605469 149.148438 187.691406 149.148438 C 192.96875 149.089844 197.738281 146.6875 200.972656 142.953125 C 201.414062 142.417969 201.859375 141.886719 202.246094 141.292969 C 204.082031 138.597656 205.210938 135.335938 205.296875 131.839844 C 205.417969 128.042969 204.351562 124.398438 202.246094 121.347656 C 201.859375 120.78125 201.445312 120.21875 200.972656 119.6875 C 200.792969 119.480469 200.613281 119.273438 200.4375 119.09375 C 197.175781 115.625 192.761719 113.640625 187.988281 113.492188 C 183.21875 113.34375 178.683594 115.0625 175.214844 118.351562 C 174.890625 118.679688 174.5625 119.003906 174.265625 119.332031 C 173.792969 119.835938 173.347656 120.398438 172.960938 120.960938 C 170.917969 123.804688 169.761719 127.214844 169.644531 130.832031 C 169.523438 134.773438 170.710938 138.597656 172.960938 141.738281 C 173.378906 142.242188 173.792969 142.773438 174.265625 143.308594 Z M 192.464844 146.242188 C 193.679688 144.761719 194.65625 142.773438 195.398438 140.402344 C 196.613281 140.730469 197.738281 141.117188 198.746094 141.589844 C 198.894531 141.648438 199.042969 141.738281 199.191406 141.828125 C 197.382812 143.84375 195.074219 145.382812 192.464844 146.242188 Z M 200.496094 140.167969 C 199.191406 139.457031 197.652344 138.863281 195.902344 138.417969 C 196.347656 136.402344 196.613281 134.179688 196.644531 131.839844 L 203.222656 131.839844 C 203.105469 134.890625 202.125 137.765625 200.496094 140.167969 Z M 200.496094 122.441406 C 201.980469 124.605469 202.898438 127.097656 203.132812 129.734375 L 196.613281 129.734375 C 196.523438 127.777344 196.289062 125.910156 195.902344 124.191406 C 197.652344 123.746094 199.191406 123.152344 200.496094 122.441406 Z M 198.925781 120.488281 C 199.015625 120.574219 199.105469 120.664062 199.191406 120.78125 C 199.042969 120.871094 198.894531 120.929688 198.71875 121.019531 C 197.710938 121.496094 196.585938 121.878906 195.367188 122.207031 C 194.628906 119.835938 193.621094 117.847656 192.40625 116.367188 C 194.894531 117.136719 197.117188 118.558594 198.925781 120.488281 Z M 188.613281 115.863281 C 189.945312 116.457031 191.21875 117.847656 192.226562 119.894531 C 192.640625 120.722656 192.996094 121.644531 193.324219 122.621094 C 191.8125 122.886719 190.210938 123.007812 188.550781 123.035156 Z M 188.550781 125.109375 C 190.417969 125.082031 192.226562 124.933594 193.886719 124.636719 C 194.242188 126.238281 194.480469 127.957031 194.570312 129.734375 L 188.523438 129.734375 Z M 188.492188 131.808594 L 194.570312 131.808594 C 194.539062 133.972656 194.300781 136.046875 193.859375 137.972656 C 192.167969 137.675781 190.332031 137.5 188.433594 137.5 Z M 188.464844 139.574219 C 190.152344 139.574219 191.8125 139.722656 193.355469 139.988281 C 193.058594 140.96875 192.671875 141.886719 192.257812 142.714844 C 191.191406 144.878906 189.828125 146.332031 188.402344 146.835938 Z M 176.074219 142.183594 C 177.140625 141.621094 178.355469 141.144531 179.660156 140.757812 C 180.371094 142.984375 181.351562 144.851562 182.507812 146.273438 C 180.074219 145.441406 177.882812 144.078125 176.074219 142.183594 Z M 186.328125 146.746094 C 184.996094 146.152344 183.722656 144.761719 182.714844 142.714844 C 182.328125 141.945312 182.003906 141.117188 181.707031 140.226562 C 183.1875 139.898438 184.757812 139.691406 186.386719 139.605469 Z M 186.386719 137.527344 C 184.550781 137.617188 182.800781 137.855469 181.113281 138.210938 C 180.636719 136.226562 180.371094 134.0625 180.34375 131.777344 L 186.417969 131.777344 Z M 186.449219 129.734375 L 180.402344 129.734375 C 180.492188 127.867188 180.726562 126.027344 181.140625 124.371094 C 182.832031 124.726562 184.640625 124.960938 186.507812 125.082031 Z M 186.535156 115.773438 L 186.476562 123.007812 C 184.816406 122.917969 183.1875 122.710938 181.675781 122.382812 C 181.972656 121.496094 182.296875 120.664062 182.683594 119.894531 C 183.78125 117.730469 185.144531 116.277344 186.535156 115.773438 Z M 176.667969 119.835938 C 178.355469 118.234375 180.371094 117.046875 182.503906 116.335938 C 181.351562 117.761719 180.371094 119.628906 179.660156 121.851562 C 178.355469 121.464844 177.140625 120.992188 176.074219 120.425781 C 176.253906 120.21875 176.460938 120.011719 176.667969 119.835938 Z M 174.710938 122.058594 C 174.769531 122.085938 174.859375 122.144531 174.949219 122.175781 C 176.191406 122.859375 177.585938 123.421875 179.128906 123.867188 C 178.710938 125.671875 178.414062 127.660156 178.328125 129.734375 L 171.804688 129.734375 C 172.074219 126.949219 173.082031 124.28125 174.710938 122.058594 Z M 178.265625 131.808594 C 178.296875 134.296875 178.59375 136.640625 179.097656 138.746094 C 177.585938 139.1875 176.164062 139.75 174.917969 140.433594 C 174.859375 140.464844 174.769531 140.523438 174.710938 140.550781 C 172.84375 138.003906 171.804688 134.980469 171.71875 131.808594 C 171.71875 131.808594 178.265625 131.808594 178.265625 131.808594 Z M 178.265625 131.808594 " fill-opacity="1" fill-rule="nonzero"/></g><path fill="#ffffff" d="M 238.375 147.8125 C 238.820312 148.4375 239.53125 148.761719 240.242188 148.761719 C 240.714844 148.761719 241.191406 148.613281 241.605469 148.316406 C 242.644531 147.546875 242.851562 146.125 242.109375 145.085938 C 240.984375 143.546875 239.769531 142.035156 238.523438 140.582031 C 237.691406 139.632812 236.210938 139.515625 235.261719 140.34375 C 234.316406 141.175781 234.195312 142.65625 235.027344 143.605469 C 236.210938 144.96875 237.335938 146.363281 238.375 147.8125 Z M 238.375 147.8125 " fill-opacity="1" fill-rule="nonzero"/><path fill="#ffffff" d="M 132.710938 149.207031 C 133.128906 149.503906 133.570312 149.621094 134.046875 149.621094 C 134.757812 149.621094 135.5 149.265625 135.941406 148.644531 C 136.980469 147.191406 138.078125 145.769531 139.234375 144.40625 C 140.0625 143.425781 139.945312 141.976562 138.964844 141.144531 C 137.988281 140.316406 136.535156 140.433594 135.707031 141.410156 C 134.460938 142.863281 133.277344 144.40625 132.179688 145.945312 C 131.410156 147.011719 131.675781 148.464844 132.710938 149.207031 Z M 132.710938 149.207031 " fill-opacity="1" fill-rule="nonzero"/><path fill="#ffffff" d="M 245.457031 160.171875 C 245.84375 161.0625 246.675781 161.566406 247.59375 161.566406 C 247.890625 161.566406 248.214844 161.507812 248.511719 161.386719 C 249.695312 160.882812 250.230469 159.519531 249.726562 158.363281 C 248.984375 156.617188 248.125 154.867188 247.238281 153.179688 C 246.644531 152.050781 245.222656 151.636719 244.09375 152.230469 C 242.96875 152.824219 242.554688 154.246094 243.148438 155.371094 C 243.976562 156.914062 244.746094 158.542969 245.457031 160.171875 Z M 245.457031 160.171875 " fill-opacity="1" fill-rule="nonzero"/><path fill="#ffffff" d="M 224.535156 134.003906 C 225.957031 135.039062 227.378906 136.164062 228.710938 137.320312 C 229.15625 137.707031 229.691406 137.882812 230.222656 137.882812 C 230.875 137.882812 231.527344 137.617188 231.972656 137.085938 C 232.804688 136.105469 232.714844 134.652344 231.734375 133.824219 C 230.285156 132.578125 228.773438 131.363281 227.230469 130.238281 C 226.195312 129.496094 224.742188 129.703125 224 130.742188 C 223.289062 131.777344 223.527344 133.230469 224.535156 134.003906 Z M 224.535156 134.003906 " fill-opacity="1" fill-rule="nonzero"/><path fill="#ffffff" d="M 143.886719 138.597656 C 144.421875 138.597656 144.984375 138.386719 145.429688 138.003906 C 146.761719 136.816406 148.15625 135.691406 149.578125 134.59375 C 150.585938 133.824219 150.792969 132.371094 150.050781 131.363281 C 149.28125 130.355469 147.828125 130.148438 146.820312 130.917969 C 145.308594 132.074219 143.796875 133.289062 142.375 134.566406 C 141.425781 135.425781 141.335938 136.875 142.195312 137.824219 C 142.613281 138.328125 143.234375 138.597656 143.886719 138.597656 Z M 143.886719 138.597656 " fill-opacity="1" fill-rule="nonzero"/><path fill="#ffffff" d="M 126.074219 162.394531 C 126.371094 162.515625 126.667969 162.574219 126.960938 162.574219 C 127.882812 162.574219 128.742188 162.039062 129.097656 161.121094 C 129.777344 159.460938 130.519531 157.832031 131.320312 156.261719 C 131.914062 155.132812 131.46875 153.742188 130.3125 153.148438 C 129.1875 152.554688 127.792969 153.03125 127.199219 154.15625 C 126.339844 155.847656 125.511719 157.625 124.800781 159.371094 C 124.324219 160.558594 124.886719 161.921875 126.074219 162.394531 Z M 126.074219 162.394531 " fill-opacity="1" fill-rule="nonzero"/><path fill="#ffffff" d="M 155.917969 130.058594 C 156.304688 130.058594 156.691406 129.972656 157.046875 129.761719 C 158.585938 128.902344 160.21875 128.105469 161.847656 127.390625 C 163.003906 126.859375 163.535156 125.496094 163.003906 124.339844 C 162.46875 123.183594 161.105469 122.648438 159.949219 123.152344 C 158.203125 123.925781 156.484375 124.785156 154.792969 125.703125 C 153.667969 126.324219 153.28125 127.71875 153.875 128.84375 C 154.320312 129.644531 155.121094 130.058594 155.917969 130.058594 Z M 155.917969 130.058594 " fill-opacity="1" fill-rule="nonzero"/><path fill="#ffffff" d="M 212.144531 126.976562 C 213.773438 127.660156 215.40625 128.460938 216.976562 129.289062 C 217.332031 129.46875 217.6875 129.554688 218.042969 129.554688 C 218.871094 129.554688 219.671875 129.113281 220.085938 128.3125 C 220.679688 127.183594 220.265625 125.792969 219.140625 125.199219 C 217.449219 124.308594 215.703125 123.480469 213.953125 122.738281 C 212.765625 122.234375 211.433594 122.796875 210.929688 123.953125 C 210.425781 125.109375 210.960938 126.472656 212.144531 126.976562 Z M 212.144531 126.976562 " fill-opacity="1" fill-rule="nonzero"/></svg>