<svg xmlns="http://www.w3.org/2000/svg" xmlns:xlink="http://www.w3.org/1999/xlink" width="500" zoomAndPan="magnify" viewBox="0 0 375 374.999991" height="500" preserveAspectRatio="xMidYMid meet" version="1.0"><defs><clipPath id="911baec762"><path d="M 113 205 L 262 205 L 262 261.84375 L 113 261.84375 Z M 113 205 " clip-rule="nonzero"/></clipPath><clipPath id="0ef6c7ca32"><path d="M 169 113.34375 L 206 113.34375 L 206 150 L 169 150 Z M 169 113.34375 " clip-rule="nonzero"/></clipPath></defs><path fill="#000000" d="M 238.554688 184.449219 C 237.457031 183.945312 236.476562 183.261719 235.648438 182.371094 L 229.070312 175.308594 L 223.585938 187.652344 L 225.601562 190.144531 C 229.71875 195.25 236.035156 198.128906 242.582031 197.890625 L 246.140625 197.773438 L 251.652344 185.425781 L 242.019531 185.21875 C 240.835938 185.191406 239.648438 184.921875 238.554688 184.449219 Z M 238.554688 184.449219 " fill-opacity="1" fill-rule="nonzero"/><path fill="#000000" d="M 224.058594 181.300781 C 224.535156 180.265625 224.414062 179.433594 223.96875 178.898438 L 227.46875 171.0625 L 236.894531 181.183594 C 238.226562 182.609375 240.09375 183.4375 242.050781 183.5 L 260.1875 183.882812 C 261.40625 183.914062 262.054688 182.460938 261.226562 181.570312 L 248.867188 168.332031 C 247.535156 166.910156 245.667969 166.078125 243.710938 166.019531 L 225.570312 165.632812 C 224.355469 165.605469 223.703125 167.058594 224.535156 167.949219 L 226.609375 170.171875 L 222.933594 178.363281 C 222.191406 178.277344 221.453125 178.808594 221.125 179.550781 C 220.445312 181.066406 221.363281 181.300781 220.382812 184.417969 C 220.265625 185.933594 223.675781 182.191406 224.058594 181.300781 Z M 224.058594 181.300781 " fill-opacity="1" fill-rule="nonzero"/><path fill="#000000" d="M 187.457031 202.074219 C 198.835938 202.074219 208.054688 189.433594 208.054688 178.039062 C 208.054688 166.640625 198.835938 157.382812 187.457031 157.382812 C 176.074219 157.382812 166.855469 166.613281 166.855469 178.039062 C 166.855469 189.433594 176.074219 202.074219 187.457031 202.074219 Z M 187.457031 202.074219 " fill-opacity="1" fill-rule="nonzero"/><g clip-path="url(#911baec762)"><path fill="#000000" d="M 252.277344 209.761719 L 236.714844 215.222656 L 211.847656 206.050781 C 211.757812 206.023438 211.671875 205.992188 211.582031 205.964844 C 210.425781 205.519531 209.210938 205.25 207.90625 205.25 L 167.035156 205.25 C 165.730469 205.25 164.484375 205.519531 163.359375 205.964844 C 163.269531 205.992188 163.179688 206.023438 163.09375 206.050781 L 138.226562 215.222656 L 122.636719 209.761719 C 119.019531 208.484375 115.046875 210.386719 113.804688 214.003906 C 112.527344 217.625 114.457031 221.601562 118.070312 222.878906 L 136.003906 229.171875 C 136.742188 229.4375 137.515625 229.554688 138.3125 229.554688 C 139.113281 229.554688 139.945312 229.40625 140.714844 229.140625 L 156.1875 223.441406 L 152.628906 253.859375 C 151.917969 258.015625 155.089844 261.84375 159.328125 261.84375 L 215.703125 261.84375 C 219.910156 261.84375 223.109375 258.015625 222.398438 253.859375 L 218.84375 223.441406 L 234.316406 229.140625 C 235.085938 229.4375 235.886719 229.554688 236.714844 229.554688 C 237.484375 229.554688 238.257812 229.4375 239.027344 229.171875 L 256.957031 222.878906 C 260.574219 221.601562 262.472656 217.65625 261.195312 214.035156 C 259.863281 210.386719 255.890625 208.484375 252.277344 209.761719 Z M 252.277344 209.761719 " fill-opacity="1" fill-rule="nonzero"/></g><path fill="#000000" d="M 131.347656 171.953125 C 131.4375 171.925781 131.527344 171.867188 131.585938 171.777344 C 131.617188 171.746094 131.617188 171.71875 131.644531 171.71875 C 131.675781 171.65625 131.703125 171.597656 131.734375 171.539062 C 131.765625 171.480469 131.765625 171.390625 131.765625 171.332031 C 131.765625 171.125 131.617188 170.976562 131.410156 170.914062 C 131.320312 170.886719 131.199219 170.886719 131.082031 170.886719 L 123.050781 172.191406 C 123.019531 172.191406 122.960938 172.222656 122.933594 172.222656 C 122.8125 172.25 122.695312 172.339844 122.636719 172.429688 C 122.515625 172.546875 122.457031 172.695312 122.457031 172.875 C 122.457031 172.992188 122.515625 173.113281 122.636719 173.199219 C 122.695312 173.230469 122.753906 173.261719 122.8125 173.289062 C 122.84375 173.289062 122.871094 173.320312 122.902344 173.320312 C 122.960938 173.347656 123.050781 173.347656 123.140625 173.320312 L 131.171875 172.015625 C 131.230469 171.984375 131.289062 171.984375 131.347656 171.953125 Z M 131.347656 171.953125 " fill-opacity="1" fill-rule="nonzero"/><path fill="#000000" d="M 133.214844 176.703125 C 133.246094 176.703125 133.277344 176.671875 133.304688 176.671875 C 133.570312 176.554688 133.75 176.316406 133.71875 176.050781 C 133.691406 175.722656 133.394531 175.546875 133.039062 175.605469 L 125.007812 176.910156 C 124.652344 176.96875 124.382812 177.265625 124.414062 177.5625 C 124.445312 177.859375 124.738281 178.066406 125.09375 178.007812 L 133.128906 176.703125 C 133.15625 176.703125 133.1875 176.703125 133.214844 176.703125 Z M 133.214844 176.703125 " fill-opacity="1" fill-rule="nonzero"/><path fill="#000000" d="M 126.578125 181.835938 C 126.457031 181.957031 126.398438 182.105469 126.398438 182.28125 C 126.429688 182.609375 126.726562 182.785156 127.082031 182.726562 L 135.113281 181.421875 C 135.144531 181.421875 135.171875 181.421875 135.203125 181.390625 C 135.230469 181.390625 135.261719 181.363281 135.292969 181.363281 C 135.378906 181.332031 135.46875 181.273438 135.527344 181.183594 C 135.648438 181.066406 135.734375 180.917969 135.707031 180.738281 C 135.675781 180.441406 135.378906 180.234375 135.023438 180.292969 L 126.992188 181.597656 C 126.84375 181.628906 126.695312 181.71875 126.578125 181.835938 Z M 126.578125 181.835938 " fill-opacity="1" fill-rule="nonzero"/><path fill="#000000" d="M 128.828125 186.347656 C 128.742188 186.378906 128.683594 186.40625 128.621094 186.464844 C 128.445312 186.585938 128.355469 186.792969 128.355469 186.96875 C 128.355469 187.089844 128.414062 187.207031 128.535156 187.296875 C 128.59375 187.328125 128.652344 187.355469 128.710938 187.386719 C 128.800781 187.414062 128.917969 187.445312 129.039062 187.414062 L 137.070312 186.109375 C 137.128906 186.109375 137.1875 186.082031 137.246094 186.050781 C 137.335938 186.019531 137.425781 185.960938 137.484375 185.871094 C 137.515625 185.84375 137.515625 185.8125 137.542969 185.8125 C 137.574219 185.753906 137.601562 185.695312 137.632812 185.636719 C 137.664062 185.574219 137.664062 185.488281 137.664062 185.425781 C 137.664062 185.367188 137.632812 185.308594 137.601562 185.25 C 137.542969 185.128906 137.425781 185.070312 137.308594 185.011719 C 137.21875 184.980469 137.097656 184.980469 136.980469 184.980469 L 128.949219 186.289062 C 128.917969 186.316406 128.890625 186.347656 128.828125 186.347656 Z M 128.828125 186.347656 " fill-opacity="1" fill-rule="nonzero"/><path fill="#000000" d="M 121.300781 192.996094 C 121.332031 193.054688 121.359375 193.113281 121.390625 193.203125 C 122.457031 195.546875 125.628906 196.40625 128.503906 195.21875 L 142.226562 189.523438 L 143.054688 189.167969 L 143.085938 189.167969 L 156.78125 183.410156 C 159.625 182.222656 161.226562 179.34375 160.335938 176.910156 C 160.304688 176.851562 160.277344 176.792969 160.277344 176.703125 L 152.570312 158.242188 L 150.199219 159.550781 L 149.371094 157.53125 L 147.175781 159.015625 L 146.347656 156.996094 L 135.351562 164.890625 C 134.371094 165.605469 133.839844 166.878906 133.839844 168.273438 C 132.832031 167.296875 131.585938 166.761719 130.371094 166.96875 L 117.09375 169.164062 L 117.921875 171.183594 L 115.316406 171.71875 L 116.144531 173.734375 L 113.566406 174.507812 Z M 148.570312 159.222656 L 155.890625 176.730469 C 156.570312 178.363281 156.128906 180.265625 154.882812 181.125 L 149.636719 184.121094 L 153.074219 181.628906 C 154.585938 180.53125 155.03125 178.097656 154.113281 175.902344 L 147.472656 159.996094 Z M 135.144531 167.382812 C 135.261719 166.613281 135.617188 165.988281 136.0625 165.664062 L 145.546875 158.777344 L 152.898438 176.40625 C 153.726562 178.363281 153.253906 180.234375 152.363281 180.886719 L 142.878906 187.773438 L 135.527344 170.144531 C 135.203125 169.34375 135.082031 168.570312 135.113281 167.890625 C 135.113281 167.710938 135.144531 167.53125 135.144531 167.382812 Z M 130.371094 168.035156 C 130.90625 167.949219 131.585938 168.125 132.238281 168.601562 C 132.355469 168.691406 132.503906 168.808594 132.625 168.925781 C 133.128906 169.402344 133.601562 170.027344 133.929688 170.796875 L 141.277344 188.425781 L 129.71875 190.324219 C 128.59375 190.503906 126.960938 189.523438 126.164062 187.5625 L 118.8125 169.9375 Z M 118.335938 172.160156 L 124.976562 188.070312 C 125.894531 190.292969 127.910156 191.660156 129.777344 191.363281 L 133.988281 190.652344 L 128.179688 192.28125 C 126.667969 192.578125 125.035156 191.539062 124.355469 189.910156 L 117.035156 172.398438 Z M 118.335938 172.160156 " fill-opacity="1" fill-rule="nonzero"/><path fill="#000000" d="M 138.195312 169.074219 C 138.253906 169.046875 138.3125 169.015625 138.375 168.988281 L 144.953125 164.179688 C 145.25 163.972656 145.308594 163.617188 145.101562 163.378906 C 145.070312 163.347656 145.042969 163.320312 145.011719 163.289062 C 144.953125 163.230469 144.863281 163.230469 144.777344 163.199219 C 144.65625 163.171875 144.539062 163.171875 144.421875 163.230469 C 144.332031 163.257812 144.273438 163.289062 144.210938 163.347656 L 137.632812 168.15625 C 137.335938 168.363281 137.277344 168.71875 137.484375 168.957031 C 137.632812 169.164062 137.929688 169.195312 138.195312 169.074219 Z M 138.195312 169.074219 " fill-opacity="1" fill-rule="nonzero"/><path fill="#000000" d="M 139.410156 173.675781 C 139.5 173.765625 139.617188 173.824219 139.738281 173.855469 C 139.765625 173.855469 139.796875 173.855469 139.824219 173.855469 C 139.824219 173.855469 139.796875 173.855469 139.796875 173.855469 C 139.824219 173.855469 139.886719 173.855469 139.914062 173.855469 C 139.945312 173.855469 139.945312 173.855469 139.945312 173.855469 C 139.945312 173.855469 139.972656 173.855469 139.972656 173.855469 C 139.972656 173.855469 139.972656 173.855469 139.945312 173.855469 C 140.003906 173.855469 140.0625 173.824219 140.09375 173.824219 C 140.152344 173.792969 140.210938 173.765625 140.242188 173.734375 L 146.820312 168.925781 C 147.117188 168.71875 147.175781 168.363281 146.96875 168.125 C 146.820312 167.949219 146.554688 167.890625 146.289062 167.976562 C 146.199219 168.007812 146.140625 168.035156 146.050781 168.097656 L 139.46875 172.902344 C 139.292969 173.082031 139.203125 173.4375 139.410156 173.675781 Z M 139.410156 173.675781 " fill-opacity="1" fill-rule="nonzero"/><path fill="#000000" d="M 141.367188 178.363281 C 141.546875 178.542969 141.8125 178.601562 142.078125 178.484375 C 142.078125 178.484375 142.109375 178.484375 142.109375 178.484375 C 142.136719 178.484375 142.136719 178.453125 142.136719 178.453125 C 142.167969 178.421875 142.226562 178.421875 142.257812 178.394531 L 148.835938 173.585938 C 149.132812 173.378906 149.191406 173.023438 148.984375 172.785156 C 148.925781 172.726562 148.867188 172.667969 148.777344 172.636719 C 148.71875 172.605469 148.597656 172.578125 148.539062 172.578125 C 148.390625 172.578125 148.214844 172.636719 148.09375 172.726562 L 141.546875 177.5625 C 141.25 177.769531 141.1875 178.128906 141.367188 178.363281 Z M 141.367188 178.363281 " fill-opacity="1" fill-rule="nonzero"/><path fill="#000000" d="M 143.351562 183.082031 C 143.53125 183.289062 143.828125 183.320312 144.09375 183.203125 C 144.152344 183.171875 144.210938 183.140625 144.273438 183.113281 L 150.851562 178.304688 C 150.882812 178.277344 150.941406 178.246094 150.96875 178.1875 C 151 178.128906 151.03125 178.097656 151.058594 178.066406 C 151.117188 177.980469 151.117188 177.890625 151.117188 177.800781 C 151.117188 177.742188 151.117188 177.683594 151.089844 177.652344 C 151.058594 177.59375 151.03125 177.535156 151 177.503906 C 150.96875 177.472656 150.941406 177.445312 150.910156 177.414062 C 150.851562 177.355469 150.761719 177.355469 150.671875 177.324219 C 150.554688 177.296875 150.4375 177.296875 150.316406 177.355469 C 150.289062 177.355469 150.257812 177.386719 150.199219 177.414062 C 150.171875 177.445312 150.140625 177.445312 150.082031 177.472656 L 143.5 182.28125 C 143.203125 182.488281 143.144531 182.84375 143.351562 183.082031 Z M 143.351562 183.082031 " fill-opacity="1" fill-rule="nonzero"/><g clip-path="url(#0ef6c7ca32)"><path fill="#000000" d="M 174.265625 143.347656 C 174.324219 143.433594 174.414062 143.496094 174.472656 143.582031 C 177.734375 147.054688 182.148438 149.042969 186.921875 149.191406 C 187.011719 149.191406 187.101562 149.191406 187.21875 149.191406 C 187.308594 149.191406 187.367188 149.191406 187.457031 149.191406 C 187.542969 149.191406 187.605469 149.191406 187.691406 149.191406 C 192.96875 149.132812 197.738281 146.730469 200.972656 142.992188 C 201.414062 142.457031 201.859375 141.921875 202.246094 141.328125 C 204.082031 138.628906 205.210938 135.363281 205.296875 131.863281 C 205.417969 128.0625 204.351562 124.414062 202.246094 121.355469 C 201.859375 120.792969 201.445312 120.230469 200.972656 119.695312 C 200.792969 119.488281 200.613281 119.277344 200.4375 119.101562 C 197.175781 115.628906 192.761719 113.640625 187.988281 113.492188 C 183.21875 113.34375 178.683594 115.066406 175.214844 118.359375 C 174.890625 118.683594 174.5625 119.011719 174.265625 119.339844 C 173.792969 119.84375 173.347656 120.40625 172.960938 120.96875 C 170.917969 123.820312 169.761719 127.230469 169.644531 130.851562 C 169.523438 134.800781 170.710938 138.628906 172.960938 141.773438 C 173.378906 142.277344 173.792969 142.8125 174.265625 143.347656 Z M 192.464844 146.285156 C 193.679688 144.800781 194.65625 142.8125 195.398438 140.4375 C 196.613281 140.765625 197.738281 141.152344 198.746094 141.625 C 198.894531 141.683594 199.042969 141.773438 199.191406 141.863281 C 197.382812 143.878906 195.074219 145.421875 192.464844 146.285156 Z M 200.496094 140.199219 C 199.191406 139.488281 197.652344 138.894531 195.902344 138.449219 C 196.347656 136.433594 196.613281 134.207031 196.644531 131.863281 L 203.222656 131.863281 C 203.105469 134.917969 202.125 137.796875 200.496094 140.199219 Z M 200.496094 122.453125 C 201.980469 124.621094 202.898438 127.113281 203.132812 129.753906 L 196.613281 129.753906 C 196.523438 127.796875 196.289062 125.925781 195.902344 124.207031 C 197.652344 123.761719 199.191406 123.167969 200.496094 122.453125 Z M 198.925781 120.496094 C 199.015625 120.585938 199.105469 120.671875 199.191406 120.792969 C 199.042969 120.882812 198.894531 120.941406 198.71875 121.03125 C 197.710938 121.503906 196.585938 121.890625 195.367188 122.21875 C 194.628906 119.84375 193.621094 117.855469 192.40625 116.371094 C 194.894531 117.140625 197.117188 118.566406 198.925781 120.496094 Z M 188.613281 115.867188 C 189.945312 116.460938 191.21875 117.855469 192.226562 119.902344 C 192.640625 120.734375 192.996094 121.652344 193.324219 122.632812 C 191.8125 122.898438 190.210938 123.019531 188.550781 123.046875 Z M 188.550781 125.125 C 190.417969 125.09375 192.226562 124.945312 193.886719 124.652344 C 194.242188 126.253906 194.480469 127.972656 194.570312 129.753906 L 188.523438 129.753906 Z M 188.492188 131.832031 L 194.570312 131.832031 C 194.539062 134 194.300781 136.074219 193.859375 138.003906 C 192.167969 137.707031 190.332031 137.53125 188.433594 137.53125 Z M 188.464844 139.605469 C 190.152344 139.605469 191.8125 139.753906 193.355469 140.023438 C 193.058594 141.003906 192.671875 141.921875 192.257812 142.753906 C 191.191406 144.917969 189.828125 146.375 188.402344 146.878906 Z M 176.074219 142.21875 C 177.140625 141.65625 178.355469 141.179688 179.660156 140.792969 C 180.371094 143.019531 181.351562 144.890625 182.507812 146.3125 C 180.074219 145.484375 177.882812 144.117188 176.074219 142.21875 Z M 186.328125 146.789062 C 184.996094 146.195312 183.722656 144.800781 182.714844 142.753906 C 182.328125 141.980469 182.003906 141.152344 181.707031 140.261719 C 183.1875 139.933594 184.757812 139.726562 186.386719 139.636719 Z M 186.386719 137.558594 C 184.550781 137.648438 182.800781 137.886719 181.113281 138.242188 C 180.636719 136.253906 180.371094 134.085938 180.34375 131.800781 L 186.417969 131.800781 Z M 186.449219 129.753906 L 180.402344 129.753906 C 180.492188 127.886719 180.726562 126.046875 181.140625 124.382812 C 182.832031 124.738281 184.640625 124.976562 186.507812 125.09375 Z M 186.535156 115.777344 L 186.476562 123.019531 C 184.816406 122.929688 183.1875 122.722656 181.675781 122.394531 C 181.972656 121.503906 182.296875 120.671875 182.683594 119.902344 C 183.78125 117.734375 185.144531 116.28125 186.535156 115.777344 Z M 176.667969 119.84375 C 178.355469 118.242188 180.371094 117.054688 182.503906 116.339844 C 181.351562 117.765625 180.371094 119.636719 179.660156 121.859375 C 178.355469 121.476562 177.140625 121 176.074219 120.4375 C 176.253906 120.230469 176.460938 120.019531 176.667969 119.84375 Z M 174.710938 122.070312 C 174.769531 122.097656 174.859375 122.15625 174.949219 122.1875 C 176.191406 122.871094 177.585938 123.433594 179.128906 123.878906 C 178.710938 125.6875 178.414062 127.675781 178.328125 129.753906 L 171.804688 129.753906 C 172.074219 126.964844 173.082031 124.292969 174.710938 122.070312 Z M 178.265625 131.832031 C 178.296875 134.324219 178.59375 136.667969 179.097656 138.777344 C 177.585938 139.222656 176.164062 139.785156 174.917969 140.46875 C 174.859375 140.496094 174.769531 140.558594 174.710938 140.585938 C 172.84375 138.035156 171.804688 135.007812 171.71875 131.832031 C 171.71875 131.832031 178.265625 131.832031 178.265625 131.832031 Z M 178.265625 131.832031 " fill-opacity="1" fill-rule="nonzero"/></g><path fill="#000000" d="M 238.375 147.855469 C 238.820312 148.480469 239.53125 148.808594 240.242188 148.808594 C 240.714844 148.808594 241.191406 148.660156 241.605469 148.363281 C 242.644531 147.589844 242.851562 146.164062 242.109375 145.128906 C 240.984375 143.582031 239.769531 142.070312 238.523438 140.617188 C 237.691406 139.667969 236.210938 139.546875 235.261719 140.378906 C 234.316406 141.210938 234.195312 142.695312 235.027344 143.644531 C 236.210938 145.007812 237.335938 146.402344 238.375 147.855469 Z M 238.375 147.855469 " fill-opacity="1" fill-rule="nonzero"/><path fill="#000000" d="M 132.710938 149.253906 C 133.128906 149.546875 133.570312 149.667969 134.046875 149.667969 C 134.757812 149.667969 135.5 149.3125 135.941406 148.6875 C 136.980469 147.234375 138.078125 145.808594 139.234375 144.445312 C 140.0625 143.464844 139.945312 142.011719 138.964844 141.179688 C 137.988281 140.347656 136.535156 140.46875 135.707031 141.445312 C 134.460938 142.902344 133.277344 144.445312 132.179688 145.988281 C 131.410156 147.054688 131.675781 148.511719 132.710938 149.253906 Z M 132.710938 149.253906 " fill-opacity="1" fill-rule="nonzero"/><path fill="#000000" d="M 245.457031 160.230469 C 245.84375 161.121094 246.675781 161.628906 247.59375 161.628906 C 247.890625 161.628906 248.214844 161.566406 248.511719 161.449219 C 249.695312 160.945312 250.230469 159.578125 249.726562 158.421875 C 248.984375 156.671875 248.125 154.921875 247.238281 153.230469 C 246.644531 152.101562 245.222656 151.683594 244.09375 152.277344 C 242.96875 152.871094 242.554688 154.296875 243.148438 155.425781 C 243.976562 156.96875 244.746094 158.601562 245.457031 160.230469 Z M 245.457031 160.230469 " fill-opacity="1" fill-rule="nonzero"/><path fill="#000000" d="M 224.535156 134.027344 C 225.957031 135.066406 227.378906 136.195312 228.710938 137.351562 C 229.15625 137.738281 229.691406 137.914062 230.222656 137.914062 C 230.875 137.914062 231.527344 137.648438 231.972656 137.113281 C 232.804688 136.136719 232.714844 134.679688 231.734375 133.851562 C 230.285156 132.605469 228.773438 131.386719 227.230469 130.257812 C 226.195312 129.515625 224.742188 129.726562 224 130.765625 C 223.289062 131.800781 223.527344 133.257812 224.535156 134.027344 Z M 224.535156 134.027344 " fill-opacity="1" fill-rule="nonzero"/><path fill="#000000" d="M 143.886719 138.628906 C 144.421875 138.628906 144.984375 138.421875 145.429688 138.035156 C 146.761719 136.847656 148.15625 135.71875 149.578125 134.621094 C 150.585938 133.851562 150.792969 132.394531 150.050781 131.386719 C 149.28125 130.378906 147.828125 130.171875 146.820312 130.941406 C 145.308594 132.097656 143.796875 133.316406 142.375 134.59375 C 141.425781 135.453125 141.335938 136.90625 142.195312 137.855469 C 142.613281 138.359375 143.234375 138.628906 143.886719 138.628906 Z M 143.886719 138.628906 " fill-opacity="1" fill-rule="nonzero"/><path fill="#000000" d="M 126.074219 162.457031 C 126.371094 162.578125 126.667969 162.636719 126.960938 162.636719 C 127.882812 162.636719 128.742188 162.101562 129.097656 161.183594 C 129.777344 159.519531 130.519531 157.886719 131.320312 156.316406 C 131.914062 155.1875 131.46875 153.792969 130.3125 153.199219 C 129.1875 152.605469 127.792969 153.082031 127.199219 154.207031 C 126.339844 155.898438 125.511719 157.679688 124.800781 159.429688 C 124.324219 160.617188 124.886719 161.984375 126.074219 162.457031 Z M 126.074219 162.457031 " fill-opacity="1" fill-rule="nonzero"/><path fill="#000000" d="M 155.917969 130.082031 C 156.304688 130.082031 156.691406 129.992188 157.046875 129.785156 C 158.585938 128.921875 160.21875 128.121094 161.847656 127.410156 C 163.003906 126.875 163.535156 125.511719 163.003906 124.355469 C 162.46875 123.195312 161.105469 122.660156 159.949219 123.167969 C 158.203125 123.9375 156.484375 124.796875 154.792969 125.71875 C 153.667969 126.34375 153.28125 127.738281 153.875 128.863281 C 154.320312 129.664062 155.121094 130.082031 155.917969 130.082031 Z M 155.917969 130.082031 " fill-opacity="1" fill-rule="nonzero"/><path fill="#000000" d="M 212.144531 126.996094 C 213.773438 127.675781 215.40625 128.480469 216.976562 129.308594 C 217.332031 129.488281 217.6875 129.578125 218.042969 129.578125 C 218.871094 129.578125 219.671875 129.132812 220.085938 128.332031 C 220.679688 127.203125 220.265625 125.808594 219.140625 125.214844 C 217.449219 124.324219 215.703125 123.492188 213.953125 122.75 C 212.765625 122.246094 211.433594 122.808594 210.929688 123.96875 C 210.425781 125.125 210.960938 126.492188 212.144531 126.996094 Z M 212.144531 126.996094 " fill-opacity="1" fill-rule="nonzero"/></svg>