<svg version="1.2" xmlns="http://www.w3.org/2000/svg" viewBox="0 0 50 50" width="50" height="50">
	<title>28-svg</title>
	<defs>
		<clipPath clipPathUnits="userSpaceOnUse" id="cp1">
			<path d="m0 30.87h50v19.08h-50z"/>
		</clipPath>
		<clipPath clipPathUnits="userSpaceOnUse" id="cp2">
			<path d="m18.79 0.12h12.42v12.3h-12.42z"/>
		</clipPath>
	</defs>
	<style>
		.s0 { fill: #000000 } 
	</style>
	<path id="Layer" class="s0" d="m42.1 24q-0.5-0.3-0.9-0.7l-2.3-2.4-1.8 4.2 0.7 0.8c1.4 1.7 3.5 2.7 5.7 2.6l1.2-0.1 1.8-4.1-3.2-0.1q-0.6 0-1.2-0.2z"/>
	<path id="Layer" class="s0" d="m37.3 22.9c0.1-0.3 0.1-0.6-0.1-0.8l1.2-2.6 3.2 3.4c0.4 0.5 1 0.7 1.7 0.8l6.1 0.1c0.4 0 0.6-0.5 0.3-0.8l-4.1-4.4c-0.5-0.5-1.1-0.8-1.7-0.8l-6.1-0.1c-0.4 0-0.7 0.4-0.4 0.7l0.7 0.8-1.2 2.7c-0.3 0-0.5 0.2-0.6 0.4-0.2 0.5 0.1 0.6-0.3 1.7 0 0.5 1.1-0.8 1.3-1.1z"/>
	<path id="Layer" class="s0" d="m25 29.9c3.8 0 6.9-4.3 6.9-8.1 0-3.8-3.1-6.9-6.9-6.9-3.8 0-6.9 3.1-6.9 6.9 0 3.8 3.1 8.1 6.9 8.1z"/>
	<g id="Clip-Path" clip-path="url(#cp1)">
		<g id="Layer">
			<path id="Layer" class="s0" d="m46.7 32.5l-5.2 1.8-8.3-3.1q-0.1 0-0.1 0-0.6-0.2-1.3-0.2h-13.7q-0.6 0-1.2 0.2 0 0-0.1 0l-8.3 3.1-5.3-1.8c-1.2-0.5-2.5 0.2-2.9 1.4-0.5 1.2 0.2 2.5 1.4 3l6 2.1q0.4 0.1 0.8 0.1 0.4 0 0.8-0.1l5.2-1.9-1.2 10.2c-0.2 1.4 0.8 2.6 2.2 2.6h19c1.4 0 2.4-1.2 2.2-2.6l-1.2-10.2 5.2 1.9q0.4 0.1 0.8 0.1 0.4 0 0.8-0.1l6-2.1c1.2-0.5 1.9-1.8 1.4-3-0.4-1.2-1.8-1.9-3-1.4z"/>
		</g>
	</g>
	<path id="Layer" class="s0" d="m6.2 19.8q0 0 0-0.1 0 0 0.1 0 0 0 0-0.1 0 0 0 0 0-0.1-0.1-0.2-0.1 0-0.1 0l-2.7 0.5q0 0-0.1 0 0 0-0.1 0 0 0.1 0 0.2 0 0.1 0 0.1 0.1 0 0.1 0 0 0 0 0 0.1 0.1 0.1 0l2.7-0.4q0 0 0.1 0z"/>
	<path id="Layer" class="s0" d="m6.8 21.4q0 0 0 0 0.2-0.1 0.2-0.2c-0.1-0.2-0.2-0.2-0.3-0.2l-2.7 0.4c-0.1 0.1-0.2 0.2-0.2 0.3 0 0.1 0.1 0.1 0.3 0.1l2.7-0.4q0 0 0 0z"/>
	<path id="Layer" class="s0" d="m4.6 23.1q-0.1 0.1-0.1 0.1c0 0.2 0.1 0.2 0.2 0.2l2.7-0.4q0 0 0.1-0.1 0 0 0 0 0 0 0.1 0 0-0.1 0-0.2c0-0.1-0.1-0.1-0.2-0.1l-2.7 0.4q-0.1 0-0.1 0.1z"/>
	<path id="Layer" class="s0" d="m5.3 24.6q0 0-0.1 0.1 0 0 0 0.1 0 0.1 0 0.1 0 0 0.1 0.1 0 0 0.1 0l2.7-0.5q0 0 0 0 0.1 0 0.1 0 0-0.1 0-0.1 0.1 0 0.1 0 0-0.1 0-0.1 0 0 0-0.1-0.1 0-0.1 0-0.1 0-0.2 0l-2.6 0.4q-0.1 0-0.1 0z"/>
	<path id="Layer" fill-rule="evenodd" class="s0" d="m0.2 20.6l0.9-0.2-0.3-0.7 0.9-0.2-0.3-0.7 4.4-0.7c0.4-0.1 0.9 0.1 1.2 0.4 0-0.4 0.2-0.8 0.5-1.1l3.7-2.6 0.3 0.6 0.7-0.5 0.3 0.7 0.8-0.4 2.6 6.2q0 0 0 0c0.3 0.9-0.3 1.8-1.2 2.2l-4.6 2-0.3 0.1-4.6 1.9c-1 0.4-2 0.1-2.4-0.7q0 0 0-0.1zm11.4-4.8l2.2 5.3c0.3 0.7 0.2 1.6-0.4 1.9l-1.1 0.9 1.8-1c0.4-0.3 0.5-1 0.3-1.5l-2.5-5.9zm-4.1 2.7q0 0.3 0.1 0.7l2.5 5.9 3.2-2.3c0.3-0.2 0.4-0.8 0.2-1.5l-2.5-5.9-3.2 2.3c-0.1 0.1-0.3 0.3-0.3 0.6q0 0.1 0 0.2zm-5.5 0.7l2.5 5.9c0.2 0.6 0.8 1 1.2 0.9l3.9-0.6-2.5-6q-0.2-0.3-0.5-0.6 0 0-0.1-0.1-0.3-0.2-0.6-0.2zm-0.6 0.8l2.5 5.9c0.2 0.6 0.7 0.9 1.2 0.8l2-0.5-1.4 0.2c-0.7 0.1-1.3-0.4-1.6-1.1l-2.3-5.3z"/>
	<path id="Layer" class="s0" d="m8.5 18.8q0 0 0 0l2.2-1.6c0.1-0.1 0.1-0.2 0.1-0.3q0 0-0.1 0 0 0 0-0.1-0.1 0-0.2 0.1 0 0 0 0l-2.2 1.6c-0.1 0.1-0.2 0.2-0.1 0.3q0.1 0.1 0.3 0z"/>
	<path id="Layer" class="s0" d="m8.9 20.4q0 0 0.1 0 0 0 0 0 0 0 0 0 0 0 0 0h0.1q0 0-0.1 0 0.1 0 0.1 0 0 0 0 0l2.2-1.6c0.1-0.1 0.2-0.2 0.1-0.3q-0.1-0.1-0.2-0.1-0.1 0.1-0.1 0.1l-2.2 1.6c-0.1 0.1-0.1 0.2 0 0.3z"/>
	<path id="Layer" class="s0" d="m9.5 21.9q0.1 0.1 0.3 0.1 0 0 0 0 0 0 0-0.1l2.2-1.6c0.1 0 0.1-0.2 0.1-0.2q-0.1-0.1-0.1-0.1 0 0-0.1 0-0.1 0-0.1 0l-2.2 1.7c-0.1 0-0.1 0.2-0.1 0.2z"/>
	<path id="Layer" class="s0" d="m10.2 23.5q0.1 0.1 0.2 0.1 0.1-0.1 0.1-0.1l2.2-1.6q0 0 0 0 0.1-0.1 0.1-0.1 0 0 0-0.1 0 0 0 0 0 0 0-0.1-0.1 0-0.1 0 0 0-0.1 0 0 0-0.1 0 0 0 0 0 0 0-0.1 0l-2.2 1.6c-0.1 0.1-0.1 0.2 0 0.3z"/>
	<g id="Clip-Path" clip-path="url(#cp2)">
		<g id="Layer">
			<path id="Layer" fill-rule="evenodd" class="s0" d="m20.1 9.7c-0.7-1.1-1.1-2.4-1.1-3.7 0-1.2 0.4-2.4 1.1-3.3q0.2-0.3 0.5-0.6 0.1-0.1 0.3-0.3c1.1-1.1 2.7-1.7 4.3-1.6 1.6 0 3 0.7 4.1 1.8q0.1 0.1 0.2 0.2 0.3 0.3 0.4 0.6c0.8 1 1.1 2.3 1.1 3.5-0.1 1.2-0.4 2.3-1.1 3.2q-0.2 0.3-0.4 0.6c-1.1 1.2-2.7 2-4.4 2q-0.1 0-0.1 0-0.1 0-0.1 0-0.1 0-0.1 0c-1.6 0-3.1-0.7-4.2-1.8q0-0.1 0-0.1-0.3-0.3-0.5-0.5zm8.8 0q-0.1-0.1-0.1-0.1-0.5-0.2-1.1-0.4-0.4 1.2-1 2c0.8-0.3 1.6-0.8 2.2-1.5zm1.4-3.4h-2.2q-0.1 1.2-0.3 2.2 0.9 0.3 1.6 0.6c0.5-0.8 0.8-1.7 0.9-2.8zm-2.5-2.5q0.2 0.8 0.3 1.8h2.1c0-0.9-0.3-1.7-0.8-2.4q-0.7 0.3-1.6 0.6zm-1.2-2.7q0.7 0.8 1 2 0.7-0.2 1.2-0.4 0.1 0 0.1-0.1 0 0-0.1-0.1c-0.6-0.6-1.3-1.1-2.2-1.4zm-1.2 2.3q0.8 0 1.6-0.2-0.2-0.5-0.4-0.9c-0.4-0.7-0.8-1.1-1.2-1.3zm0 2.2h2q-0.1-0.9-0.2-1.7-0.9 0.1-1.8 0.2zm-0.1 2.6q1 0 1.9 0.1 0.2-0.9 0.2-2h-2zm0 3.1c0.4-0.2 0.9-0.7 1.2-1.4q0.3-0.4 0.4-0.9-0.8-0.1-1.6-0.1zm-2-0.2q-0.6-0.8-1-1.9-0.6 0.2-1.2 0.5 1 0.9 2.2 1.4zm1.3-2.3q-0.8 0.1-1.6 0.2 0.2 0.5 0.4 0.9c0.3 0.7 0.7 1.1 1.2 1.3zm0-2.6h-2.1q0.1 1.1 0.3 2.2 0.9-0.2 1.8-0.3zm0-2.2q-0.9-0.1-1.8-0.3-0.2 0.9-0.2 1.8h2zm-1.3-1.7q-0.2 0.4-0.3 0.8 0.7 0.2 1.6 0.2v-2.4c-0.5 0.2-0.9 0.7-1.3 1.4zm-2.2 0.2q0.5 0.3 1.2 0.5 0.4-1.2 0.9-1.9c-0.7 0.2-1.3 0.6-1.9 1.2q-0.1 0.1-0.2 0.2zm-1.4 3.1h2.1q0.1-1.1 0.3-2-0.8-0.2-1.4-0.5 0-0.1-0.1-0.1c-0.5 0.8-0.9 1.7-0.9 2.6zm-0.1 0.7c0.1 1.1 0.4 2.1 1 2.9q0.1 0 0.1 0 0.6-0.3 1.4-0.6-0.3-1-0.3-2.3z"/>
		</g>
	</g>
	<path id="Layer" class="s0" d="m42.1 11.7c0.1 0.2 0.4 0.3 0.6 0.3q0.2 0 0.5-0.1c0.3-0.3 0.4-0.8 0.1-1.1q-0.5-0.8-1.2-1.5c-0.3-0.4-0.8-0.4-1.1-0.1-0.3 0.3-0.3 0.8-0.1 1.1q0.6 0.7 1.2 1.4z"/>
	<path id="Layer" class="s0" d="m6.6 12.2q0.2 0.1 0.5 0.1c0.2 0 0.5-0.1 0.6-0.3q0.5-0.8 1.1-1.4c0.3-0.4 0.2-0.9-0.1-1.1-0.3-0.3-0.8-0.3-1.1 0q-0.6 0.8-1.2 1.6c-0.2 0.3-0.1 0.8 0.2 1.1z"/>
	<path id="Layer" class="s0" d="m44.4 15.8c0.2 0.3 0.5 0.5 0.8 0.5q0.1 0 0.3 0c0.4-0.2 0.6-0.7 0.4-1.1q-0.4-0.8-0.9-1.7c-0.2-0.4-0.6-0.5-1-0.3-0.4 0.2-0.5 0.7-0.3 1q0.4 0.8 0.7 1.6z"/>
	<path id="Layer" class="s0" d="m37.4 7.1q0.8 0.5 1.4 1.1 0.3 0.2 0.5 0.2c0.3 0 0.5-0.1 0.6-0.3 0.3-0.3 0.3-0.8-0.1-1.1q-0.7-0.6-1.5-1.2c-0.3-0.3-0.8-0.2-1.1 0.2-0.2 0.3-0.1 0.8 0.2 1.1z"/>
	<path id="Layer" class="s0" d="m10.4 8.6q0.2 0 0.5-0.2 0.7-0.6 1.4-1.1c0.3-0.3 0.4-0.8 0.1-1.1-0.2-0.4-0.7-0.4-1.1-0.2q-0.7 0.6-1.4 1.2c-0.4 0.3-0.4 0.8-0.1 1.1q0.2 0.3 0.6 0.3z"/>
	<path id="Layer" class="s0" d="m4.4 16.6q0.1 0.1 0.3 0.1c0.3 0 0.6-0.2 0.7-0.5q0.3-0.9 0.7-1.7c0.2-0.3 0.1-0.8-0.3-1-0.4-0.2-0.8 0-1 0.3q-0.5 0.9-0.8 1.8c-0.2 0.4 0 0.8 0.4 1z"/>
	<path id="Layer" class="s0" d="m14.4 5.7q0.2 0 0.4-0.1 0.8-0.4 1.6-0.8c0.4-0.1 0.6-0.6 0.4-1-0.2-0.4-0.7-0.6-1-0.4q-0.9 0.4-1.8 0.9c-0.4 0.2-0.5 0.6-0.3 1 0.2 0.3 0.4 0.4 0.7 0.4z"/>
	<path id="Layer" class="s0" d="m33.3 4.7q0.8 0.3 1.6 0.8 0.2 0.1 0.3 0.1c0.3 0 0.6-0.2 0.7-0.5 0.2-0.3 0.1-0.8-0.3-1q-0.8-0.5-1.7-0.8c-0.4-0.2-0.9 0-1 0.4-0.2 0.4 0 0.8 0.4 1z"/>
</svg>