<svg xmlns="http://www.w3.org/2000/svg" xmlns:xlink="http://www.w3.org/1999/xlink" width="500" zoomAndPan="magnify" viewBox="0 0 375 374.999991" height="500" preserveAspectRatio="xMidYMid meet" version="1.0"><defs><clipPath id="3635c1bce1"><path d="M 112.5 123.84375 L 262.5 123.84375 L 262.5 251.34375 L 112.5 251.34375 Z M 112.5 123.84375 " clip-rule="nonzero"/></clipPath></defs><g clip-path="url(#3635c1bce1)"><path fill="#fcfcfc" d="M 127.503906 251.15625 C 126.609375 251.15625 125.78125 250.652344 125.371094 249.839844 C 124.925781 248.960938 125.074219 247.894531 125.738281 247.164062 C 132.773438 239.421875 137.792969 232.710938 139.230469 225.546875 C 122.246094 214.566406 112.542969 198.574219 112.542969 181.453125 C 112.542969 165.9375 120.425781 151.398438 134.742188 140.503906 C 148.859375 129.761719 167.597656 123.84375 187.5 123.84375 C 207.402344 123.84375 226.140625 129.761719 240.257812 140.503906 C 254.574219 151.398438 262.457031 165.9375 262.457031 181.453125 C 262.457031 196.964844 254.574219 211.507812 240.257812 222.398438 C 226.140625 233.144531 207.402344 239.0625 187.5 239.0625 C 182.453125 239.0625 177.398438 238.671875 172.460938 237.898438 C 161.394531 245 147.148438 249.214844 127.738281 251.144531 C 127.660156 251.152344 127.582031 251.15625 127.503906 251.15625 Z M 187.5 128.617188 C 148.800781 128.617188 117.320312 152.320312 117.320312 181.453125 C 117.320312 197.332031 126.714844 212.234375 143.09375 222.339844 C 143.894531 222.832031 144.328125 223.746094 144.207031 224.679688 C 143.1875 232.5625 138.53125 239.542969 133.390625 245.683594 C 149.335938 243.550781 161.265625 239.601562 170.609375 233.40625 C 171.113281 233.074219 171.726562 232.941406 172.320312 233.042969 C 177.292969 233.867188 182.398438 234.289062 187.5 234.289062 C 226.199219 234.289062 257.679688 210.585938 257.679688 181.453125 C 257.679688 152.320312 226.199219 128.617188 187.5 128.617188 Z M 187.5 128.617188 " fill-opacity="1" fill-rule="nonzero"/></g></svg>