<svg xmlns="http://www.w3.org/2000/svg" xmlns:xlink="http://www.w3.org/1999/xlink" width="500" zoomAndPan="magnify" viewBox="0 0 375 374.999991" height="500" preserveAspectRatio="xMidYMid meet" version="1.0"><defs><clipPath id="d5c03fedb7"><path d="M 61 264.410156 L 210.9375 264.410156 L 210.9375 337 L 61 337 Z M 61 264.410156 " clip-rule="nonzero"/></clipPath><clipPath id="0332698a94"><path d="M 167 112.5 L 208 112.5 L 208 154 L 167 154 Z M 167 112.5 " clip-rule="nonzero"/></clipPath><clipPath id="486b5cc7af"><path d="M 126.09375 154 L 249 154 L 249 262.5 L 126.09375 262.5 Z M 126.09375 154 " clip-rule="nonzero"/></clipPath></defs><g clip-path="url(#d5c03fedb7)"><path fill="#ffffff" d="M 210.039062 287.253906 C 203.152344 283.683594 196.15625 280.355469 189.050781 277.265625 C 176.46875 271.8125 163.644531 267.132812 149.96875 265.179688 C 148.390625 264.953125 146.71875 264.492188 145.207031 264.769531 C 137.523438 266.15625 130.066406 268.316406 122.835938 271.246094 C 122.246094 271.46875 121.648438 271.503906 121.039062 271.355469 C 114.132812 270.085938 107.796875 271.230469 102.144531 275.613281 C 98.945312 278.089844 96.132812 280.964844 93.171875 283.6875 C 91.714844 285.011719 90.144531 286.128906 88.144531 286.546875 C 86.289062 286.941406 84.386719 286.71875 82.53125 287.019531 C 82.007812 287.105469 81.984375 286.714844 81.933594 286.378906 C 81.890625 286.007812 81.75 285.675781 81.511719 285.386719 C 81.277344 285.09375 80.980469 284.886719 80.625 284.765625 C 78.847656 284.105469 77.304688 283.015625 75.726562 282.035156 C 74.921875 281.515625 74.054688 281.117188 73.132812 280.847656 C 70.707031 280.183594 69.515625 280.617188 68.109375 282.683594 C 67.832031 283.113281 67.464844 283.445312 67.003906 283.675781 C 66.480469 283.929688 66.027344 284.273438 65.640625 284.710938 C 64.476562 285.964844 63.425781 287.335938 61.707031 287.96875 C 60.96875 288.246094 60.933594 288.816406 61.628906 289.359375 C 62.367188 289.957031 63.210938 290.265625 64.160156 290.277344 C 66.09375 290.328125 67.925781 290.90625 69.871094 291.488281 C 68.941406 292.375 69.582031 292.882812 70.269531 293.285156 C 70.820312 293.574219 71.40625 293.730469 72.027344 293.757812 C 74.859375 294.03125 76.976562 292.699219 78.820312 290.78125 C 79.460938 290.066406 80.152344 289.40625 80.898438 288.796875 C 81.203125 288.519531 81.550781 288.457031 81.933594 288.609375 C 85.140625 289.601562 88.292969 289.300781 91.527344 288.246094 C 90.746094 288.851562 89.957031 289.445312 89.183594 290.0625 C 85.476562 292.984375 81.871094 296.015625 78.84375 299.652344 C 77.609375 301.152344 77.953125 302.019531 79.867188 302.417969 C 81.890625 302.839844 83.921875 303.222656 85.960938 303.597656 C 93.382812 304.960938 100.804688 306.332031 108.222656 307.652344 C 108.96875 307.785156 109.117188 308.046875 109.109375 308.753906 C 109.074219 312.042969 109.046875 315.332031 109.136719 318.621094 C 109.253906 322.972656 109.253906 327.328125 110.113281 331.632812 C 110.335938 332.75 110.984375 333.074219 111.777344 333.40625 C 117.128906 335.636719 122.796875 336.296875 128.515625 336.632812 C 135.511719 337.050781 142.46875 336.632812 149.429688 335.75 C 157.558594 334.710938 165.511719 332.960938 173.203125 330.125 C 177.925781 328.382812 182.507812 326.328125 186.472656 323.144531 C 187.0625 322.699219 187.523438 322.144531 187.855469 321.488281 C 188.191406 320.832031 188.363281 320.136719 188.378906 319.398438 C 188.652344 312.605469 189.296875 305.816406 188.816406 299.003906 C 188.757812 298.15625 189.058594 297.824219 189.8125 297.539062 C 195.371094 295.460938 200.921875 293.355469 206.460938 291.222656 C 207.839844 290.691406 209.230469 290.191406 210.273438 289.027344 C 210.949219 288.289062 210.929688 287.722656 210.039062 287.253906 Z M 76.949219 286.300781 C 76.28125 286.960938 75.496094 287.082031 74.671875 287.085938 C 72.988281 287.085938 71.308594 287.046875 69.625 287.042969 C 68.425781 287.023438 67.253906 287.179688 66.101562 287.507812 C 68.269531 284.316406 70.605469 283.332031 76.949219 286.300781 Z M 70.90625 289.664062 C 69.535156 289.210938 68.199219 288.640625 66.757812 288.3125 C 67.925781 287.957031 69.125 287.78125 70.347656 287.789062 C 72.289062 287.789062 74.246094 288.0625 76.15625 287.515625 C 76.441406 287.429688 76.59375 287.472656 76.660156 287.746094 C 76.730469 288.015625 76.828125 288.257812 76.457031 288.507812 C 74.75 289.648438 72.992188 290.347656 70.90625 289.664062 Z M 76.984375 289.953125 C 75.617188 290.96875 74.164062 291.769531 72.230469 291.605469 C 72.726562 290.960938 73.101562 290.558594 73.855469 290.453125 C 74.84375 290.269531 75.730469 289.863281 76.511719 289.230469 C 76.898438 288.941406 77.289062 288.707031 77.566406 289.179688 C 77.839844 289.652344 77.238281 289.761719 76.984375 289.953125 Z M 77.089844 285.507812 C 75.640625 285.058594 74.238281 284.488281 72.882812 283.800781 C 72.21875 283.46875 71.59375 283.070312 70.808594 282.609375 C 71.9375 282.328125 73.015625 282.457031 74.046875 282.996094 C 75.183594 283.546875 76.296875 284.140625 77.417969 284.722656 C 77.632812 284.835938 78.042969 284.816406 77.933594 285.1875 C 77.824219 285.5625 77.476562 285.617188 77.089844 285.507812 Z M 78.78125 287.671875 C 78.660156 287.679688 78.558594 287.636719 78.480469 287.542969 C 78.398438 287.449219 78.375 287.34375 78.398438 287.222656 C 78.484375 286.5625 79.042969 286.582031 79.507812 286.523438 C 79.609375 286.503906 79.707031 286.523438 79.792969 286.585938 C 79.878906 286.644531 79.933594 286.726562 79.953125 286.828125 C 79.871094 287.082031 79.722656 287.285156 79.503906 287.441406 C 79.289062 287.597656 79.046875 287.675781 78.78125 287.671875 Z M 95.066406 285.359375 C 98.128906 282.519531 100.957031 279.4375 104.34375 276.941406 C 107.933594 274.296875 111.894531 272.941406 116.371094 273.121094 C 116.742188 273.121094 117.140625 273.046875 117.652344 273.40625 C 109.605469 276.976562 101.898438 281.160156 94.527344 285.957031 C 94.710938 285.765625 94.871094 285.535156 95.066406 285.367188 Z M 176.574219 324.113281 C 180.039062 322.957031 183.109375 321.140625 185.78125 318.664062 C 186.378906 320.367188 186.3125 320.613281 184.980469 321.539062 C 179.3125 325.492188 172.929688 327.871094 166.339844 329.71875 C 154.824219 332.945312 143.078125 334.589844 131.117188 334.324219 C 125.390625 334.199219 119.703125 333.664062 114.226562 331.835938 C 114.046875 331.777344 113.867188 331.710938 113.6875 331.644531 C 111.957031 331 111.957031 331 112.167969 328.996094 C 115.316406 330.210938 118.574219 330.964844 121.941406 331.257812 C 120.960938 330.507812 119.75 330.375 118.617188 330.035156 C 116.804688 329.476562 114.960938 328.992188 113.125 328.519531 C 112.328125 328.308594 111.921875 327.925781 111.921875 327.042969 C 111.921875 324.25 111.84375 321.460938 111.792969 318.671875 C 111.738281 315.613281 111.714844 312.550781 111.613281 309.496094 C 111.578125 308.5625 111.851562 308.296875 112.773438 308.46875 C 123.058594 310.371094 133.347656 312.234375 143.628906 314.152344 C 144.660156 314.34375 145.496094 313.988281 146.394531 313.652344 C 154.402344 310.6875 162.414062 307.726562 170.425781 304.769531 C 175.300781 302.964844 180.179688 301.148438 185.066406 299.320312 C 186.273438 298.875 186.257812 298.878906 186.285156 300.199219 C 186.394531 305.589844 186.046875 310.972656 185.953125 316.367188 C 185.953125 317.066406 185.597656 317.464844 185.125 317.894531 C 181.277344 321.429688 176.539062 323.214844 171.660156 324.730469 C 169.859375 325.292969 168.0625 325.882812 166.199219 326.480469 C 167.074219 326.878906 172.035156 325.691406 176.574219 324.113281 Z M 196.4375 292.691406 C 179.445312 298.945312 162.460938 305.21875 145.472656 311.507812 C 144.753906 311.800781 144.007812 311.875 143.242188 311.730469 C 127.414062 308.839844 111.574219 305.964844 95.730469 303.109375 C 90.980469 302.253906 86.222656 301.425781 81.46875 300.582031 C 81.136719 300.523438 80.824219 300.421875 80.351562 300.304688 C 82.214844 298.378906 84.179688 296.558594 86.242188 294.847656 C 96.699219 286.042969 108.507812 279.5 121.074219 274.21875 C 121.574219 273.96875 122.09375 273.90625 122.640625 274.023438 C 124.023438 274.363281 125.367188 274.820312 126.671875 275.394531 C 121.757812 277.582031 117.035156 279.746094 112.425781 282.257812 C 112.929688 282.71875 113.25 282.332031 113.539062 282.207031 C 117.976562 280.289062 122.414062 278.367188 126.828125 276.398438 C 127.207031 276.207031 127.605469 276.121094 128.027344 276.140625 C 128.445312 276.15625 128.839844 276.273438 129.199219 276.488281 C 133.652344 278.792969 137.78125 281.574219 141.585938 284.835938 C 142.355469 285.480469 143.027344 286.210938 143.601562 287.03125 C 143.957031 287.558594 144.429688 287.765625 144.980469 287.472656 C 145.527344 287.183594 145.484375 286.703125 145.3125 286.171875 C 144.988281 285.25 144.457031 284.46875 143.722656 283.824219 C 140.335938 280.488281 136.394531 277.917969 132.300781 275.554688 C 131.90625 275.324219 131.507812 275.097656 130.914062 274.753906 C 132.808594 274.011719 134.539062 273.300781 136.292969 272.652344 C 139.46875 271.480469 142.664062 270.339844 145.910156 269.378906 C 146.242188 269.277344 147.054688 269.378906 146.859375 268.71875 C 146.699219 268.164062 146.019531 268.460938 145.632812 268.566406 C 142.078125 269.558594 138.574219 270.734375 135.117188 272.027344 C 133.585938 272.605469 132.054688 273.1875 130.546875 273.828125 C 129.964844 274.109375 129.386719 274.097656 128.8125 273.792969 C 127.847656 273.332031 126.839844 272.960938 125.824219 272.542969 C 126.050781 272.109375 126.515625 272.113281 126.878906 271.980469 C 132.964844 269.722656 139.246094 268.160156 145.59375 266.875 C 147.441406 266.5 149.316406 267.164062 151.152344 267.488281 C 165.542969 270.007812 179.011719 275.261719 192.226562 281.25 C 197.351562 283.566406 202.429688 286 207.667969 288.679688 C 203.765625 290.0625 200.089844 291.335938 196.4375 292.683594 Z M 196.4375 292.691406 " fill-opacity="1" fill-rule="nonzero"/></g><path fill="#ffffff" d="M 91.332031 298.578125 C 91.636719 298.824219 125.386719 303.582031 127.457031 303.628906 C 123.527344 302.234375 93.160156 297.46875 91.332031 298.578125 Z M 91.332031 298.578125 " fill-opacity="1" fill-rule="nonzero"/><path fill="#ffffff" d="M 195.550781 288.488281 C 183.320312 291.796875 171.113281 295.199219 159.886719 301.261719 C 171.339844 295.789062 183.605469 292.570312 195.550781 288.488281 Z M 195.550781 288.488281 " fill-opacity="1" fill-rule="nonzero"/><path fill="#ffffff" d="M 87.894531 297.753906 C 95.628906 292.808594 102.878906 287.378906 110.996094 283.347656 C 108.15625 283.742188 88.84375 295.789062 87.894531 297.753906 Z M 87.894531 297.753906 " fill-opacity="1" fill-rule="nonzero"/><path fill="#ffffff" d="M 153.992188 303.285156 C 151.707031 304.195312 149.390625 305.027344 147.140625 306.015625 C 145.433594 306.789062 143.664062 307.003906 141.824219 306.652344 C 140.117188 306.351562 138.421875 305.8125 136.527344 305.9375 C 136.761719 306.339844 137.109375 306.558594 137.574219 306.597656 C 138.652344 306.796875 139.726562 307.042969 140.808594 307.222656 C 143.003906 307.59375 145.128906 307.707031 147.257812 306.628906 C 149.28125 305.601562 151.433594 304.84375 153.519531 303.9375 C 153.851562 303.796875 154.308594 303.761719 154.445312 303.328125 C 154.25 303.125 154.136719 303.226562 153.992188 303.285156 Z M 153.992188 303.285156 " fill-opacity="1" fill-rule="nonzero"/><path fill="#ffffff" d="M 148.96875 269.378906 C 154.074219 270.640625 159.195312 271.824219 164.414062 272.539062 C 159.347656 271.085938 154.285156 269.605469 148.96875 269.378906 Z M 148.96875 269.378906 " fill-opacity="1" fill-rule="nonzero"/><path fill="#ffffff" d="M 197.046875 285.378906 C 190.835938 282.003906 184.246094 279.519531 177.589844 277.199219 C 184.035156 280.023438 190.640625 282.46875 197.046875 285.378906 Z M 197.046875 285.378906 " fill-opacity="1" fill-rule="nonzero"/><path fill="#ffffff" d="M 126.09375 331.695312 C 132.410156 332.234375 138.714844 332.144531 145.007812 331.417969 C 151.304688 330.695312 157.464844 329.355469 163.488281 327.398438 C 151.203125 330.386719 138.785156 332.21875 126.09375 331.695312 Z M 126.09375 331.695312 " fill-opacity="1" fill-rule="nonzero"/><g clip-path="url(#0332698a94)"><path fill="#fcfcfc" d="M 207.953125 132.953125 C 207.953125 133.625 207.921875 134.292969 207.855469 134.960938 C 207.789062 135.625 207.691406 136.289062 207.5625 136.945312 C 207.429688 137.601562 207.269531 138.25 207.074219 138.890625 C 206.878906 139.535156 206.652344 140.164062 206.398438 140.78125 C 206.140625 141.402344 205.855469 142.007812 205.539062 142.597656 C 205.222656 143.1875 204.878906 143.761719 204.507812 144.320312 C 204.136719 144.875 203.738281 145.414062 203.3125 145.929688 C 202.886719 146.449219 202.4375 146.945312 201.964844 147.417969 C 201.488281 147.890625 200.992188 148.339844 200.476562 148.765625 C 199.957031 149.191406 199.421875 149.589844 198.863281 149.960938 C 198.308594 150.335938 197.734375 150.679688 197.140625 150.992188 C 196.550781 151.308594 195.945312 151.597656 195.328125 151.851562 C 194.707031 152.109375 194.078125 152.332031 193.4375 152.527344 C 192.796875 152.722656 192.148438 152.886719 191.492188 153.015625 C 190.832031 153.148438 190.171875 153.246094 189.503906 153.3125 C 188.839844 153.375 188.167969 153.410156 187.5 153.410156 C 186.828125 153.410156 186.160156 153.375 185.496094 153.3125 C 184.828125 153.246094 184.167969 153.148438 183.507812 153.015625 C 182.851562 152.886719 182.203125 152.722656 181.5625 152.527344 C 180.921875 152.332031 180.292969 152.109375 179.671875 151.851562 C 179.054688 151.597656 178.449219 151.308594 177.859375 150.992188 C 177.265625 150.679688 176.691406 150.335938 176.136719 149.960938 C 175.578125 149.589844 175.042969 149.191406 174.523438 148.765625 C 174.007812 148.339844 173.511719 147.890625 173.035156 147.417969 C 172.5625 146.945312 172.113281 146.449219 171.6875 145.929688 C 171.261719 145.414062 170.863281 144.875 170.492188 144.320312 C 170.121094 143.761719 169.777344 143.1875 169.460938 142.597656 C 169.144531 142.007812 168.859375 141.402344 168.601562 140.78125 C 168.347656 140.164062 168.121094 139.535156 167.925781 138.890625 C 167.730469 138.25 167.570312 137.601562 167.4375 136.945312 C 167.308594 136.289062 167.210938 135.625 167.144531 134.960938 C 167.078125 134.292969 167.046875 133.625 167.046875 132.953125 C 167.046875 132.285156 167.078125 131.617188 167.144531 130.949219 C 167.210938 130.28125 167.308594 129.621094 167.4375 128.964844 C 167.570312 128.308594 167.730469 127.65625 167.925781 127.015625 C 168.121094 126.375 168.347656 125.746094 168.601562 125.125 C 168.859375 124.507812 169.144531 123.902344 169.460938 123.3125 C 169.777344 122.722656 170.121094 122.148438 170.492188 121.589844 C 170.863281 121.035156 171.261719 120.496094 171.6875 119.976562 C 172.113281 119.460938 172.5625 118.964844 173.035156 118.492188 C 173.511719 118.015625 174.007812 117.566406 174.523438 117.144531 C 175.042969 116.71875 175.578125 116.320312 176.136719 115.945312 C 176.691406 115.574219 177.265625 115.230469 177.859375 114.914062 C 178.449219 114.597656 179.054688 114.3125 179.671875 114.058594 C 180.292969 113.800781 180.921875 113.574219 181.5625 113.378906 C 182.203125 113.1875 182.851562 113.023438 183.507812 112.894531 C 184.167969 112.761719 184.828125 112.664062 185.496094 112.597656 C 186.160156 112.53125 186.828125 112.5 187.5 112.5 C 188.167969 112.5 188.839844 112.53125 189.503906 112.597656 C 190.171875 112.664062 190.832031 112.761719 191.492188 112.894531 C 192.148438 113.023438 192.796875 113.1875 193.4375 113.378906 C 194.078125 113.574219 194.707031 113.800781 195.328125 114.058594 C 195.945312 114.3125 196.550781 114.597656 197.140625 114.914062 C 197.734375 115.230469 198.308594 115.574219 198.863281 115.945312 C 199.421875 116.320312 199.957031 116.71875 200.476562 117.144531 C 200.992188 117.566406 201.488281 118.015625 201.964844 118.492188 C 202.4375 118.964844 202.886719 119.460938 203.3125 119.976562 C 203.738281 120.496094 204.136719 121.035156 204.507812 121.589844 C 204.878906 122.148438 205.222656 122.722656 205.539062 123.3125 C 205.855469 123.902344 206.140625 124.507812 206.398438 125.125 C 206.652344 125.746094 206.878906 126.375 207.074219 127.015625 C 207.269531 127.65625 207.429688 128.308594 207.5625 128.964844 C 207.691406 129.621094 207.789062 130.28125 207.855469 130.949219 C 207.921875 131.617188 207.953125 132.285156 207.953125 132.953125 Z M 207.953125 132.953125 " fill-opacity="1" fill-rule="nonzero"/></g><path fill="#fcfcfc" d="M 228.410156 173.863281 C 228.410156 174.757812 228.320312 175.644531 228.148438 176.523438 C 227.972656 177.402344 227.714844 178.253906 227.371094 179.082031 C 227.027344 179.910156 226.609375 180.695312 226.109375 181.441406 C 225.613281 182.183594 225.046875 182.871094 224.414062 183.507812 C 223.78125 184.140625 223.09375 184.703125 222.347656 185.203125 C 221.605469 185.699219 220.816406 186.121094 219.992188 186.460938 C 219.164062 186.804688 218.3125 187.0625 217.433594 187.238281 C 216.554688 187.414062 215.667969 187.5 214.773438 187.5 C 213.878906 187.5 212.992188 187.414062 212.113281 187.238281 C 211.234375 187.0625 210.382812 186.804688 209.554688 186.460938 C 208.726562 186.121094 207.941406 185.699219 207.195312 185.203125 C 206.453125 184.703125 205.761719 184.140625 205.128906 183.507812 C 204.496094 182.871094 203.933594 182.183594 203.433594 181.441406 C 202.9375 180.695312 202.515625 179.910156 202.175781 179.082031 C 201.832031 178.253906 201.574219 177.402344 201.398438 176.523438 C 201.222656 175.644531 201.136719 174.757812 201.136719 173.863281 C 201.136719 172.96875 201.222656 172.082031 201.398438 171.203125 C 201.574219 170.324219 201.832031 169.472656 202.175781 168.644531 C 202.515625 167.816406 202.9375 167.03125 203.433594 166.289062 C 203.933594 165.542969 204.496094 164.855469 205.128906 164.222656 C 205.761719 163.589844 206.453125 163.023438 207.195312 162.527344 C 207.941406 162.027344 208.726562 161.609375 209.554688 161.265625 C 210.382812 160.921875 211.234375 160.664062 212.113281 160.488281 C 212.992188 160.316406 213.878906 160.226562 214.773438 160.226562 C 215.667969 160.226562 216.554688 160.316406 217.433594 160.488281 C 218.3125 160.664062 219.164062 160.921875 219.992188 161.265625 C 220.816406 161.609375 221.605469 162.027344 222.347656 162.527344 C 223.09375 163.023438 223.78125 163.589844 224.414062 164.222656 C 225.046875 164.855469 225.613281 165.542969 226.109375 166.289062 C 226.609375 167.03125 227.027344 167.816406 227.371094 168.644531 C 227.714844 169.472656 227.972656 170.324219 228.148438 171.203125 C 228.320312 172.082031 228.410156 172.96875 228.410156 173.863281 Z M 228.410156 173.863281 " fill-opacity="1" fill-rule="nonzero"/><path fill="#fcfcfc" d="M 196.949219 213.128906 C 196.949219 213.128906 221.632812 216.988281 226.992188 218.773438 C 232.0625 220.464844 234.367188 220.828125 236.6875 219.539062 C 241.949219 216.613281 242.679688 211.65625 240.511719 206.019531 C 238.214844 200.058594 230.175781 175.882812 227.882812 169.921875 C 227.882812 169.921875 210.410156 167.148438 210.410156 167.148438 C 211.070312 167.25 211.664062 179.851562 211.480469 180.832031 C 211.164062 182.460938 193.390625 211.546875 196.949219 213.128906 Z M 196.949219 213.128906 " fill-opacity="1" fill-rule="nonzero"/><path fill="#fcfcfc" d="M 178.050781 213.128906 C 178.050781 213.128906 153.367188 216.988281 148.007812 218.773438 C 142.9375 220.464844 140.632812 220.828125 138.3125 219.539062 C 133.050781 216.613281 132.320312 211.65625 134.488281 206.019531 C 136.785156 200.058594 144.824219 175.882812 147.117188 169.921875 C 147.117188 169.921875 164.589844 167.148438 164.589844 167.148438 C 163.929688 167.25 163.335938 179.851562 163.519531 180.832031 C 163.835938 182.460938 181.609375 211.546875 178.050781 213.128906 Z M 178.050781 213.128906 " fill-opacity="1" fill-rule="nonzero"/><path fill="#fcfcfc" d="M 173.863281 173.863281 C 173.863281 174.757812 173.777344 175.644531 173.601562 176.523438 C 173.425781 177.402344 173.167969 178.253906 172.824219 179.082031 C 172.484375 179.910156 172.0625 180.695312 171.566406 181.441406 C 171.066406 182.183594 170.503906 182.871094 169.871094 183.507812 C 169.238281 184.140625 168.546875 184.703125 167.804688 185.203125 C 167.058594 185.699219 166.273438 186.121094 165.445312 186.460938 C 164.617188 186.804688 163.765625 187.0625 162.886719 187.238281 C 162.007812 187.414062 161.121094 187.5 160.226562 187.5 C 159.332031 187.5 158.445312 187.414062 157.566406 187.238281 C 156.6875 187.0625 155.835938 186.804688 155.007812 186.460938 C 154.179688 186.121094 153.394531 185.699219 152.652344 185.203125 C 151.90625 184.703125 151.21875 184.140625 150.585938 183.507812 C 149.953125 182.871094 149.386719 182.183594 148.890625 181.441406 C 148.390625 180.695312 147.972656 179.910156 147.628906 179.082031 C 147.285156 178.253906 147.027344 177.402344 146.851562 176.523438 C 146.679688 175.644531 146.589844 174.757812 146.589844 173.863281 C 146.589844 172.96875 146.679688 172.082031 146.851562 171.203125 C 147.027344 170.324219 147.285156 169.472656 147.628906 168.644531 C 147.972656 167.816406 148.390625 167.03125 148.890625 166.289062 C 149.386719 165.542969 149.953125 164.855469 150.585938 164.222656 C 151.21875 163.589844 151.90625 163.023438 152.652344 162.527344 C 153.394531 162.027344 154.179688 161.609375 155.007812 161.265625 C 155.835938 160.921875 156.6875 160.664062 157.566406 160.488281 C 158.445312 160.316406 159.332031 160.226562 160.226562 160.226562 C 161.121094 160.226562 162.007812 160.316406 162.886719 160.488281 C 163.765625 160.664062 164.617188 160.921875 165.445312 161.265625 C 166.273438 161.609375 167.058594 162.027344 167.804688 162.527344 C 168.546875 163.023438 169.238281 163.589844 169.871094 164.222656 C 170.503906 164.855469 171.066406 165.542969 171.566406 166.289062 C 172.0625 167.03125 172.484375 167.816406 172.824219 168.644531 C 173.167969 169.472656 173.425781 170.324219 173.601562 171.203125 C 173.777344 172.082031 173.863281 172.96875 173.863281 173.863281 Z M 173.863281 173.863281 " fill-opacity="1" fill-rule="nonzero"/><g clip-path="url(#486b5cc7af)"><path fill="#fcfcfc" d="M 237.246094 233.945312 C 224.269531 224.507812 214.773438 222.148438 214.773438 217.433594 L 214.773438 187.5 L 217.757812 160.65625 C 217.757812 160.65625 201.996094 154.316406 187.5 154.316406 C 173.003906 154.316406 157.5625 160.445312 157.5625 160.445312 L 160.226562 187.5 L 160.226562 217.738281 C 160.226562 222.785156 147.566406 228.710938 140.449219 233.128906 C 131.515625 238.683594 126.136719 242.40625 126.136719 250.0625 C 126.136719 258.804688 135.367188 262.5 143.425781 262.5 C 149.585938 262.5 166.40625 262.5 166.40625 262.5 C 166.40625 262.5 157.671875 259.003906 157.671875 249.585938 C 157.671875 237.253906 173.980469 233.25 186.605469 231.386719 C 190.902344 230.753906 197.746094 230.242188 197.746094 230.242188 L 214.773438 235.226562 C 214.773438 235.226562 203.882812 236.925781 188.605469 239.550781 C 176.53125 241.621094 167.046875 244.070312 167.046875 251.769531 C 167.046875 260.378906 174.007812 262.5 178.125 262.5 C 182.242188 262.5 217.132812 262.5 222.976562 262.5 C 228.816406 262.5 248.863281 262.289062 248.863281 251.101562 C 248.863281 240.519531 243.738281 238.671875 237.246094 233.945312 Z M 187.5 175.621094 C 183.320312 175.621094 179.359375 184.199219 173.863281 194.316406 C 173.863281 194.316406 177.601562 167.046875 187.5 167.046875 C 197.398438 167.046875 201.136719 194.316406 201.136719 194.316406 C 196.296875 185.523438 191.679688 175.621094 187.5 175.621094 Z M 187.5 175.621094 " fill-opacity="1" fill-rule="nonzero"/></g></svg>