<svg xmlns="http://www.w3.org/2000/svg" xmlns:xlink="http://www.w3.org/1999/xlink" width="500" zoomAndPan="magnify" viewBox="0 0 375 374.999991" height="500" preserveAspectRatio="xMidYMid meet" version="1.0"><defs><clipPath id="e782beba1a"><path d="M 134 142 L 241 142 L 241 258.28125 L 134 258.28125 Z M 134 142 " clip-rule="nonzero"/></clipPath><clipPath id="60a9a91822"><path d="M 112.5 116.53125 L 262.5 116.53125 L 262.5 192 L 112.5 192 Z M 112.5 116.53125 " clip-rule="nonzero"/></clipPath></defs><g clip-path="url(#e782beba1a)"><path fill="#fcfcfc" d="M 240.160156 188.679688 Z M 240.160156 188.679688 L 187.515625 142.058594 L 134.839844 188.699219 L 134.839844 255.347656 C 134.839844 257.070312 136.230469 258.449219 137.953125 258.449219 L 170.871094 258.449219 L 170.871094 229.226562 C 170.871094 227.507812 172.253906 226.113281 173.972656 226.113281 L 201.023438 226.113281 C 202.746094 226.113281 204.125 227.507812 204.125 229.226562 L 204.125 258.449219 L 237.054688 258.449219 C 238.777344 258.449219 240.15625 257.070312 240.15625 255.347656 L 240.15625 188.675781 Z M 134.839844 188.699219 Z M 134.839844 188.699219 " fill-opacity="1" fill-rule="nonzero"/></g><g clip-path="url(#60a9a91822)"><path fill="#fcfcfc" d="M 187.210938 116.542969 L 112.5 182.691406 L 120.371094 191.570312 L 187.515625 132.113281 L 254.644531 191.570312 L 262.5 182.691406 L 187.808594 116.542969 L 187.515625 116.878906 Z M 187.210938 116.542969 " fill-opacity="1" fill-rule="nonzero"/></g><path fill="#fcfcfc" d="M 134.839844 126.0625 L 153.777344 126.0625 L 153.613281 137.28125 L 134.839844 154.242188 Z M 134.839844 126.0625 " fill-opacity="1" fill-rule="nonzero"/></svg>