<svg xmlns="http://www.w3.org/2000/svg" xmlns:xlink="http://www.w3.org/1999/xlink" width="500" zoomAndPan="magnify" viewBox="0 0 375 374.999991" height="500" preserveAspectRatio="xMidYMid meet" version="1.0"><defs><clipPath id="12484da861"><path d="M 112.5 151 L 262.5 151 L 262.5 223.703125 L 112.5 223.703125 Z M 112.5 151 " clip-rule="nonzero"/></clipPath></defs><g clip-path="url(#12484da861)"><path fill="#ffffff" d="M 261.601562 173.796875 C 254.714844 170.226562 247.71875 166.898438 240.613281 163.8125 C 228.03125 158.359375 215.207031 153.679688 201.53125 151.722656 C 199.953125 151.5 198.28125 151.035156 196.769531 151.3125 C 189.085938 152.703125 181.628906 154.863281 174.398438 157.792969 C 173.808594 158.015625 173.210938 158.050781 172.601562 157.902344 C 165.695312 156.632812 159.359375 157.777344 153.707031 162.160156 C 150.507812 164.636719 147.695312 167.511719 144.734375 170.234375 C 143.277344 171.554688 141.707031 172.671875 139.707031 173.09375 C 137.851562 173.488281 135.949219 173.261719 134.09375 173.566406 C 133.570312 173.648438 133.546875 173.257812 133.496094 172.925781 C 133.453125 172.554688 133.3125 172.222656 133.074219 171.929688 C 132.839844 171.640625 132.542969 171.433594 132.1875 171.3125 C 130.410156 170.648438 128.867188 169.5625 127.289062 168.578125 C 126.484375 168.058594 125.617188 167.664062 124.695312 167.390625 C 122.269531 166.730469 121.078125 167.164062 119.671875 169.226562 C 119.394531 169.660156 119.027344 169.988281 118.566406 170.21875 C 118.042969 170.476562 117.589844 170.820312 117.203125 171.253906 C 116.039062 172.511719 114.988281 173.882812 113.269531 174.515625 C 112.53125 174.789062 112.496094 175.363281 113.191406 175.90625 C 113.929688 176.503906 114.773438 176.8125 115.722656 176.824219 C 117.65625 176.875 119.488281 177.449219 121.433594 178.03125 C 120.503906 178.921875 121.144531 179.429688 121.832031 179.832031 C 122.382812 180.121094 122.96875 180.277344 123.589844 180.304688 C 126.421875 180.574219 128.539062 179.246094 130.382812 177.328125 C 131.023438 176.613281 131.714844 175.949219 132.460938 175.34375 C 132.765625 175.066406 133.113281 175.003906 133.496094 175.15625 C 136.703125 176.148438 139.855469 175.84375 143.089844 174.789062 C 142.308594 175.394531 141.519531 175.992188 140.746094 176.605469 C 137.039062 179.53125 133.433594 182.558594 130.40625 186.199219 C 129.171875 187.695312 129.515625 188.566406 131.429688 188.964844 C 133.453125 189.382812 135.484375 189.765625 137.523438 190.144531 C 144.945312 191.507812 152.367188 192.875 159.785156 194.199219 C 160.53125 194.332031 160.679688 194.59375 160.671875 195.300781 C 160.636719 198.589844 160.609375 201.878906 160.699219 205.167969 C 160.816406 209.515625 160.816406 213.871094 161.675781 218.179688 C 161.898438 219.292969 162.546875 219.621094 163.339844 219.953125 C 168.691406 222.179688 174.359375 222.84375 180.078125 223.179688 C 187.074219 223.597656 194.03125 223.179688 200.992188 222.292969 C 209.121094 221.257812 217.074219 219.503906 224.765625 216.671875 C 229.488281 214.925781 234.070312 212.875 238.035156 209.691406 C 238.625 209.242188 239.085938 208.691406 239.417969 208.035156 C 239.753906 207.378906 239.925781 206.679688 239.941406 205.945312 C 240.214844 199.152344 240.859375 192.359375 240.378906 185.550781 C 240.320312 184.703125 240.621094 184.371094 241.375 184.085938 C 246.933594 182.007812 252.484375 179.902344 258.023438 177.765625 C 259.402344 177.238281 260.792969 176.734375 261.835938 175.570312 C 262.511719 174.832031 262.492188 174.269531 261.601562 173.796875 Z M 128.511719 172.847656 C 127.84375 173.507812 127.058594 173.625 126.234375 173.628906 C 124.550781 173.628906 122.871094 173.59375 121.1875 173.589844 C 119.988281 173.570312 118.816406 173.722656 117.664062 174.054688 C 119.832031 170.859375 122.167969 169.875 128.511719 172.847656 Z M 122.46875 176.210938 C 121.097656 175.757812 119.761719 175.1875 118.320312 174.855469 C 119.488281 174.503906 120.6875 174.328125 121.910156 174.335938 C 123.851562 174.335938 125.808594 174.609375 127.71875 174.058594 C 128.003906 173.976562 128.15625 174.019531 128.222656 174.292969 C 128.292969 174.5625 128.390625 174.804688 128.019531 175.050781 C 126.3125 176.191406 124.554688 176.894531 122.46875 176.210938 Z M 128.546875 176.496094 C 127.179688 177.511719 125.726562 178.3125 123.792969 178.152344 C 124.289062 177.507812 124.664062 177.101562 125.417969 176.996094 C 126.40625 176.816406 127.292969 176.40625 128.074219 175.777344 C 128.460938 175.484375 128.851562 175.253906 129.128906 175.726562 C 129.402344 176.199219 128.800781 176.308594 128.546875 176.496094 Z M 128.652344 172.050781 C 127.203125 171.601562 125.800781 171.035156 124.445312 170.34375 C 123.78125 170.015625 123.15625 169.613281 122.371094 169.15625 C 123.5 168.875 124.578125 169.003906 125.609375 169.542969 C 126.746094 170.089844 127.859375 170.6875 128.980469 171.269531 C 129.195312 171.378906 129.605469 171.359375 129.496094 171.734375 C 129.386719 172.109375 129.039062 172.164062 128.652344 172.050781 Z M 130.34375 174.21875 C 130.222656 174.222656 130.121094 174.179688 130.042969 174.085938 C 129.960938 173.996094 129.9375 173.886719 129.960938 173.769531 C 130.046875 173.105469 130.605469 173.125 131.070312 173.066406 C 131.171875 173.050781 131.269531 173.070312 131.355469 173.128906 C 131.441406 173.191406 131.496094 173.273438 131.515625 173.375 C 131.433594 173.628906 131.285156 173.832031 131.066406 173.988281 C 130.851562 174.140625 130.609375 174.21875 130.34375 174.21875 Z M 146.628906 171.902344 C 149.691406 169.066406 152.519531 165.984375 155.90625 163.488281 C 159.496094 160.84375 163.457031 159.488281 167.933594 159.664062 C 168.304688 159.664062 168.703125 159.59375 169.214844 159.953125 C 161.167969 163.523438 153.460938 167.707031 146.089844 172.5 C 146.273438 172.308594 146.433594 172.082031 146.628906 171.914062 Z M 228.136719 210.65625 C 231.601562 209.503906 234.671875 207.6875 237.34375 205.210938 C 237.941406 206.914062 237.875 207.160156 236.542969 208.085938 C 230.875 212.035156 224.492188 214.414062 217.902344 216.265625 C 206.386719 219.492188 194.640625 221.136719 182.679688 220.871094 C 176.953125 220.746094 171.265625 220.210938 165.789062 218.378906 C 165.609375 218.320312 165.429688 218.253906 165.25 218.1875 C 163.519531 217.546875 163.519531 217.546875 163.730469 215.542969 C 166.878906 216.757812 170.136719 217.511719 173.503906 217.804688 C 172.523438 217.054688 171.3125 216.921875 170.179688 216.582031 C 168.367188 216.023438 166.523438 215.539062 164.6875 215.0625 C 163.890625 214.855469 163.484375 214.472656 163.484375 213.589844 C 163.484375 210.796875 163.40625 208.003906 163.355469 205.214844 C 163.300781 202.15625 163.277344 199.097656 163.175781 196.042969 C 163.140625 195.109375 163.414062 194.839844 164.335938 195.011719 C 174.621094 196.914062 184.910156 198.78125 195.191406 200.699219 C 196.222656 200.890625 197.058594 200.535156 197.957031 200.199219 C 205.964844 197.234375 213.976562 194.273438 221.988281 191.316406 C 226.863281 189.507812 231.742188 187.691406 236.628906 185.867188 C 237.835938 185.421875 237.820312 185.425781 237.847656 186.742188 C 237.957031 192.136719 237.609375 197.519531 237.515625 202.910156 C 237.515625 203.613281 237.160156 204.007812 236.6875 204.4375 C 232.839844 207.976562 228.101562 209.761719 223.222656 211.277344 C 221.421875 211.839844 219.625 212.425781 217.761719 213.027344 C 218.636719 213.425781 223.597656 212.234375 228.136719 210.65625 Z M 248 179.234375 C 231.007812 185.492188 214.023438 191.765625 197.035156 198.050781 C 196.316406 198.34375 195.570312 198.417969 194.804688 198.277344 C 178.976562 195.382812 163.136719 192.511719 147.292969 189.65625 C 142.542969 188.796875 137.785156 187.972656 133.03125 187.128906 C 132.699219 187.066406 132.386719 186.96875 131.914062 186.851562 C 133.777344 184.925781 135.742188 183.105469 137.804688 181.390625 C 148.261719 172.585938 160.070312 166.046875 172.636719 160.761719 C 173.136719 160.515625 173.65625 160.449219 174.203125 160.566406 C 175.585938 160.90625 176.929688 161.363281 178.234375 161.941406 C 173.320312 164.128906 168.597656 166.292969 163.988281 168.804688 C 164.492188 169.265625 164.8125 168.875 165.101562 168.75 C 169.539062 166.835938 173.976562 164.914062 178.390625 162.941406 C 178.769531 162.753906 179.167969 162.667969 179.589844 162.683594 C 180.007812 162.699219 180.402344 162.816406 180.761719 163.035156 C 185.214844 165.339844 189.34375 168.121094 193.148438 171.378906 C 193.917969 172.023438 194.589844 172.757812 195.164062 173.578125 C 195.519531 174.101562 195.992188 174.3125 196.542969 174.019531 C 197.089844 173.730469 197.046875 173.25 196.875 172.714844 C 196.550781 171.796875 196.019531 171.011719 195.285156 170.367188 C 191.898438 167.035156 187.957031 164.464844 183.863281 162.097656 C 183.46875 161.867188 183.070312 161.644531 182.476562 161.300781 C 184.371094 160.558594 186.101562 159.847656 187.855469 159.199219 C 191.03125 158.023438 194.226562 156.882812 197.472656 155.925781 C 197.804688 155.820312 198.617188 155.925781 198.421875 155.261719 C 198.261719 154.710938 197.582031 155.003906 197.195312 155.109375 C 193.640625 156.101562 190.136719 157.28125 186.679688 158.574219 C 185.148438 159.148438 183.617188 159.734375 182.109375 160.371094 C 181.527344 160.652344 180.949219 160.640625 180.375 160.339844 C 179.410156 159.875 178.402344 159.507812 177.386719 159.089844 C 177.613281 158.652344 178.078125 158.660156 178.441406 158.523438 C 184.527344 156.269531 190.808594 154.703125 197.15625 153.421875 C 199.003906 153.046875 200.878906 153.707031 202.714844 154.03125 C 217.105469 156.554688 230.574219 161.808594 243.789062 167.796875 C 248.914062 170.109375 253.992188 172.542969 259.230469 175.222656 C 255.328125 176.609375 251.652344 177.882812 248 179.230469 Z M 248 179.234375 " fill-opacity="1" fill-rule="nonzero"/></g><path fill="#ffffff" d="M 142.894531 185.125 C 143.199219 185.367188 176.949219 190.128906 179.019531 190.175781 C 175.089844 188.78125 144.722656 184.015625 142.894531 185.125 Z M 142.894531 185.125 " fill-opacity="1" fill-rule="nonzero"/><path fill="#ffffff" d="M 247.113281 175.035156 C 234.882812 178.34375 222.675781 181.746094 211.449219 187.808594 C 222.902344 182.335938 235.167969 179.117188 247.113281 175.035156 Z M 247.113281 175.035156 " fill-opacity="1" fill-rule="nonzero"/><path fill="#ffffff" d="M 139.457031 184.300781 C 147.191406 179.355469 154.441406 173.925781 162.558594 169.890625 C 159.71875 170.285156 140.40625 182.335938 139.457031 184.300781 Z M 139.457031 184.300781 " fill-opacity="1" fill-rule="nonzero"/><path fill="#ffffff" d="M 205.554688 189.828125 C 203.269531 190.738281 200.953125 191.574219 198.703125 192.5625 C 196.996094 193.335938 195.226562 193.546875 193.386719 193.195312 C 191.679688 192.894531 189.984375 192.355469 188.089844 192.484375 C 188.324219 192.886719 188.671875 193.105469 189.136719 193.144531 C 190.214844 193.34375 191.289062 193.585938 192.371094 193.769531 C 194.566406 194.140625 196.691406 194.253906 198.820312 193.175781 C 200.84375 192.148438 202.996094 191.386719 205.082031 190.484375 C 205.414062 190.34375 205.871094 190.304688 206.007812 189.871094 C 205.8125 189.671875 205.699219 189.773438 205.554688 189.828125 Z M 205.554688 189.828125 " fill-opacity="1" fill-rule="nonzero"/><path fill="#ffffff" d="M 200.53125 155.925781 C 205.636719 157.183594 210.757812 158.367188 215.976562 159.082031 C 210.910156 157.632812 205.847656 156.152344 200.53125 155.925781 Z M 200.53125 155.925781 " fill-opacity="1" fill-rule="nonzero"/><path fill="#ffffff" d="M 248.609375 171.925781 C 242.398438 168.550781 235.808594 166.066406 229.152344 163.742188 C 235.597656 166.566406 242.203125 169.011719 248.609375 171.925781 Z M 248.609375 171.925781 " fill-opacity="1" fill-rule="nonzero"/><path fill="#ffffff" d="M 177.65625 218.242188 C 183.972656 218.78125 190.277344 218.6875 196.570312 217.964844 C 202.867188 217.242188 209.027344 215.898438 215.050781 213.941406 C 202.765625 216.933594 190.347656 218.765625 177.65625 218.242188 Z M 177.65625 218.242188 " fill-opacity="1" fill-rule="nonzero"/></svg>