<svg xmlns="http://www.w3.org/2000/svg" xmlns:xlink="http://www.w3.org/1999/xlink" width="500" zoomAndPan="magnify" viewBox="0 0 375 374.999991" height="500" preserveAspectRatio="xMidYMid meet" version="1.0"><defs><clipPath id="afa9117d21"><path d="M 37.5 61.5 L 337.5 61.5 L 337.5 313.5 L 37.5 313.5 Z M 37.5 61.5 " clip-rule="nonzero"/></clipPath></defs><rect x="-37.5" width="450" fill="#ffffff" y="-37.499999" height="449.999989" fill-opacity="1"/><rect x="-37.5" width="450" fill="#ffffff" y="-37.499999" height="449.999989" fill-opacity="1"/><g clip-path="url(#afa9117d21)"><path fill="#000000" d="M 296.359375 162.882812 L 296.359375 161.609375 C 296.359375 106.40625 247.523438 61.5 187.5 61.5 C 127.476562 61.5 78.640625 106.40625 78.640625 161.609375 L 78.640625 162.875 C 55.453125 166.804688 37.890625 185.5 37.890625 207.96875 C 37.890625 220.632812 43.46875 232.085938 52.492188 240.398438 C 59.492188 246.828125 68.53125 251.34375 78.640625 253.0625 C 79.898438 253.273438 81.171875 253.445312 82.46875 253.570312 C 82.515625 253.664062 82.554688 253.75 82.609375 253.828125 C 92.734375 273.554688 110.203125 286.070312 132.71875 293.46875 C 144.023438 297.179688 155.6875 299.226562 167.585938 300.148438 C 167.585938 300.148438 167.585938 300.148438 167.59375 300.148438 C 170.296875 307.890625 178.179688 313.5 187.5 313.5 C 199.046875 313.5 208.414062 304.890625 208.414062 294.265625 C 208.414062 283.648438 199.046875 275.03125 187.5 275.03125 C 177.320312 275.03125 168.84375 281.726562 166.976562 290.585938 C 166.976562 290.585938 166.976562 290.585938 166.96875 290.585938 C 156.0625 289.640625 145.414062 287.523438 135.109375 284.070312 C 117.59375 278.210938 103.4375 268.664062 94.273438 253.828125 L 100.09375 253.828125 L 100.09375 161.609375 C 100.09375 117.289062 139.304688 81.226562 187.5 81.226562 C 235.695312 81.226562 274.90625 117.289062 274.90625 161.609375 L 274.90625 253.828125 L 287.242188 253.828125 C 290.3125 253.828125 293.320312 253.5625 296.242188 253.070312 L 296.359375 253.0625 L 296.359375 253.046875 C 319.546875 249.109375 337.109375 230.429688 337.109375 207.96875 C 337.109375 185.5 319.546875 166.820312 296.359375 162.882812 " fill-opacity="1" fill-rule="nonzero"/></g><path fill="#000000" d="M 196.390625 238.4375 L 217.289062 176.5625 L 206.179688 176.5625 L 185.28125 238.4375 L 196.390625 238.4375 " fill-opacity="1" fill-rule="nonzero"/><path fill="#000000" d="M 131.429688 208.5625 L 118.65625 223.007812 L 118.65625 228.414062 L 146.328125 228.414062 L 146.328125 222.070312 L 129.476562 222.070312 L 129.421875 221.929688 L 136.210938 213.773438 C 139.429688 210.164062 141.6875 207.34375 143 205.304688 C 144.3125 203.265625 144.96875 201.007812 144.96875 198.539062 C 144.96875 194.890625 143.796875 191.984375 141.453125 189.828125 C 139.109375 187.664062 135.828125 186.585938 131.601562 186.585938 C 127.367188 186.585938 124 187.859375 121.484375 190.390625 C 118.976562 192.9375 117.773438 196.039062 117.859375 199.695312 L 117.921875 199.867188 L 125.960938 199.867188 C 125.960938 197.867188 126.453125 196.210938 127.4375 194.914062 C 128.421875 193.609375 129.804688 192.960938 131.601562 192.960938 C 133.296875 192.960938 134.570312 193.46875 135.421875 194.484375 C 136.273438 195.507812 136.695312 196.867188 136.695312 198.5625 C 136.695312 199.867188 136.296875 201.296875 135.492188 202.859375 C 134.6875 204.414062 133.335938 206.3125 131.429688 208.5625 " fill-opacity="1" fill-rule="nonzero"/><path fill="#000000" d="M 155.390625 213.0625 L 164.0625 199.890625 L 164.90625 198.054688 L 165.078125 198.078125 L 165.078125 213.0625 Z M 173.351562 228.414062 L 173.351562 219.460938 L 177.992188 219.460938 L 177.992188 213.0625 L 173.351562 213.0625 L 173.351562 187.179688 L 164.992188 187.179688 L 147.890625 214.507812 L 148.28125 219.460938 L 165.078125 219.460938 L 165.078125 228.414062 L 173.351562 228.414062 " fill-opacity="1" fill-rule="nonzero"/><path fill="#000000" d="M 228.140625 193.257812 L 249.1875 193.257812 C 245.164062 197.898438 242.101562 202.585938 239.992188 207.3125 C 237.890625 212.046875 236.835938 217.28125 236.835938 223.023438 L 236.835938 228.117188 L 245.109375 228.117188 L 245.109375 223.023438 C 245.109375 217.375 245.945312 212.367188 247.625 207.992188 C 249.304688 203.625 252.476562 198.710938 257.140625 193.257812 L 257.140625 186.882812 L 228.140625 186.882812 L 228.140625 193.257812 " fill-opacity="1" fill-rule="nonzero"/></svg>